<svg xmlns="http://www.w3.org/2000/svg" width="1079.685" height="286.565" viewBox="0 0 1079.685 286.565">
  <g id="グループ_292" data-name="グループ 292" transform="translate(-143 -1466)" style="isolation: isolate">
    <g id="mid" transform="translate(1043.314 1546.564)" style="isolation: isolate">
      <path id="パス_460" data-name="パス 460" d="M777.91,2018.087l62.75,2.5-62.017-12.135,34.232-10.289-33.481,3.089,43.405-26.3-53.489,23.664,43.089-51-46.9,47.744,8.871-66.333-19.585,62.579-9.036-40.019,1.211,42.068-39.84-49.471L737.3,2000.8l-68.427-27.527,61.26,33.059-52.391-5.869,53.68,11.242-70.133,12.151,68.527-5.383-35.974,21.457,36.073-9.613L707.211,2061.8l32.275-30.829-14.7,64.073,25.6-63.288,1.894,41.1,4.12-41.806,20.591,41.752-9.614-43.328,42.045,34.765-33.6-42.02,39.534,9.615Z" transform="translate(-661.29 -1929.027)" fill="#ffc6c6"/>
    </g>
    <g id="mid-2" data-name="mid" transform="translate(301.199 1646.854)" style="isolation: isolate">
      <path id="パス_460-2" data-name="パス 460" d="M732.549,1983.446l38.343,1.53L733,1977.561l20.917-6.287-20.458,1.888,26.522-16.073-32.684,14.46,26.328-31.163-28.655,29.173,5.42-40.532-11.967,38.238-5.522-24.453.74,25.705L689.3,1938.289l18.439,34.593-41.811-16.82,37.432,20.2-32.013-3.586,32.8,6.869-42.854,7.425,41.873-3.289-21.982,13.111,22.042-5.874-13.874,19.239,19.721-18.838-8.985,39.15,15.642-38.671,1.157,25.111,2.517-25.545,12.582,25.512-5.875-26.475,25.691,21.242-20.532-25.676,24.157,5.875Z" transform="translate(-661.29 -1929.027)" fill="#ffc6c6"/>
    </g>
    <g id="imeg" transform="translate(143 1466)">
      <g id="グループ_245" data-name="グループ 245" transform="translate(981.404 0)">
        <g id="グループ_244" data-name="グループ 244" style="isolation: isolate">
          <g id="グループ_242" data-name="グループ 242" transform="translate(2 2)" style="mix-blend-mode: multiply;isolation: isolate">
            <path id="パス_465" data-name="パス 465" d="M1013.285,2021.593l-13.9,14.028-19.635-6.036,7.439,17.373-9.562,15.866,18-4.9,14.454,16.929,2.919-16.075,16.13-8.534-16.165-7.74Z" transform="translate(-976.71 -2021.462)" fill="#fff1f1"/>
            <path id="パス_466" data-name="パス 466" d="M1013.23,2021.724c-2.389,2.57-4.628,5.059-6.766,7.546-2.14,2.438-4.219,4.773-6.373,7.055l-.4.42-.608-.168c-3.3-.909-6.586-1.877-9.877-2.823-3.279-.988-6.569-1.934-9.837-2.956l1.539-1.712c.608,1.453,1.245,2.893,1.828,4.357s1.2,2.912,1.767,4.383l3.429,8.811.162.414-.213.329c-1.674,2.6-3.392,5.166-5.031,7.783-.824,1.306-1.655,2.607-2.453,3.928l-2.409,3.956-.481-.637q4.5-1.231,8.976-2.543l8.934-2.7.455-.138.349.386c2.49,2.753,5.02,5.471,7.476,8.253s4.95,5.53,7.381,8.332l-2.3.62,2.732-16.109.121-.715.657-.348,8.062-4.27,8.107-4.188.051,2.538q-8.022-4-15.995-8.093l-.617-.319.032-.625c.17-3.326.393-6.652.634-10.08l.375-5.261Zm.11-.262.125,5.03.215,5.2c.134,3.543.251,7.19.314,10.836l-.585-.943c5.467,2.415,10.906,4.89,16.335,7.385l2.562,1.178-2.511,1.361-8.023,4.346-8.067,4.263.777-1.063-3.1,16.041-.528,2.725-1.769-2.105c-2.387-2.841-4.718-5.729-7.072-8.6s-4.651-5.786-6.979-8.676l.8.248-9.069,2.2q-4.524,1.139-9.028,2.353l-1.026.277.545-.914,2.372-3.978c.794-1.323,1.558-2.666,2.327-4,1.548-2.671,3.018-5.39,4.53-8.084l-.051.744-4.009-8.562c-.674-1.425-1.3-2.87-1.953-4.3s-1.259-2.887-1.891-4.329l-1.1-2.509,2.639.8c3.277.989,6.531,2.055,9.8,3.079,3.254,1.067,6.515,2.11,9.758,3.213l-1.005.252c2.481-2.394,5.037-4.735,7.531-6.972C1008.7,2025.755,1011.095,2023.568,1013.34,2021.462Z" transform="translate(-976.71 -2021.462)" fill="#fff1f1"/>
          </g>
          <g id="グループ_243" data-name="グループ 243">
            <path id="パス_467" data-name="パス 467" d="M1011.285,2019.593l-13.9,14.028-19.635-6.036,7.439,17.373-9.562,15.866,18-4.9,14.454,16.929,2.919-16.075,16.13-8.534-16.165-7.74Z" transform="translate(-974.71 -2019.462)" fill="#ffc6c6"/>
            <path id="パス_468" data-name="パス 468" d="M1011.23,2019.724c-2.389,2.57-4.628,5.059-6.766,7.546-2.14,2.438-4.219,4.773-6.373,7.055l-.4.42-.608-.168c-3.3-.909-6.586-1.877-9.877-2.823-3.279-.988-6.569-1.934-9.837-2.956l1.539-1.712c.608,1.453,1.245,2.893,1.828,4.357s1.2,2.912,1.767,4.383l3.429,8.811.162.414-.213.329c-1.674,2.6-3.392,5.166-5.031,7.783-.824,1.306-1.655,2.607-2.453,3.928l-2.409,3.956-.481-.637q4.5-1.231,8.976-2.543l8.934-2.7.455-.138.349.386c2.49,2.753,5.02,5.471,7.476,8.253s4.95,5.53,7.381,8.332l-2.3.62,2.732-16.109.121-.715.657-.348,8.062-4.27,8.107-4.188.051,2.538q-8.022-4-15.995-8.093l-.617-.319.032-.625c.17-3.326.393-6.652.634-10.08l.375-5.261Zm.11-.262.125,5.03.215,5.2c.134,3.543.251,7.19.314,10.836l-.585-.943c5.467,2.415,10.906,4.89,16.335,7.385l2.562,1.178-2.511,1.361-8.023,4.346-8.067,4.263.777-1.063-3.1,16.041-.528,2.725-1.769-2.105c-2.387-2.841-4.718-5.729-7.072-8.6s-4.651-5.786-6.979-8.676l.8.248-9.069,2.2q-4.524,1.139-9.028,2.353l-1.026.277.545-.914,2.372-3.978c.794-1.323,1.558-2.666,2.327-4,1.548-2.671,3.018-5.39,4.53-8.084l-.051.744-4.009-8.562c-.674-1.425-1.3-2.87-1.953-4.3s-1.259-2.887-1.891-4.329l-1.1-2.509,2.639.8c3.277.989,6.531,2.055,9.8,3.079,3.254,1.067,6.515,2.11,9.758,3.213l-1.005.252c2.481-2.394,5.037-4.735,7.531-6.972C1006.7,2023.755,1009.095,2021.568,1011.34,2019.462Z" transform="translate(-974.71 -2019.462)" fill="#fff1f1"/>
          </g>
        </g>
      </g>
      <g id="グループ_249" data-name="グループ 249" transform="translate(69.337 53.126)" style="isolation: isolate">
        <g id="グループ_248" data-name="グループ 248" transform="translate(0 0)">
          <g id="グループ_246" data-name="グループ 246" transform="translate(2 2)" style="isolation: isolate">
            <path id="パス_469" data-name="パス 469" d="M644.928,1950.721l-.191,16.752-15.524,7.911L644,1981.578l3.539,15.309,8.078-13.608,18.8,1.782-7.709-11.516,4.79-14.719-14.416,4.825Z" transform="translate(-626.186 -1950.589)" fill="#fff1f1"/>
            <path id="パス_470" data-name="パス 470" d="M644.979,1950.853c.078,3.009.208,5.855.409,8.628.165,2.741.3,5.366.349,8l.011.572-.557.309c-2.541,1.408-5.111,2.762-7.669,4.137-2.579,1.335-5.138,2.709-7.733,4.013l-.086-2.3c1.227.529,2.466,1.028,3.683,1.581s2.448,1.07,3.658,1.641l7.27,3.388.407.19.074.38c.5,2.573.947,5.157,1.485,7.72.264,1.283.52,2.567.813,3.844l.863,3.832-.788-.123q2.013-3.405,3.955-6.854l3.816-6.936.228-.414.523.032c3.143.192,6.291.331,9.43.566s6.282.421,9.417.689l-1.218,2.043-7.867-11.409-.411-.6.23-.709,2.391-7.361,2.48-7.331,1.8,1.788c-4.835,1.519-9.678,3.017-14.541,4.453l-.671.2-.4-.469c-1.83-2.121-3.621-4.279-5.471-6.524l-2.848-3.461Q646.542,1952.632,644.979,1950.853Zm-.1-.264,3.046,2.947,3.227,3c2.2,2.066,4.459,4.219,6.679,6.408l-1.077-.272c4.748-1.781,9.516-3.5,14.291-5.2l2.658-.945-.855,2.733-2.309,7.387-2.4,7.358-.181-1.3,7.551,11.621,1.512,2.328-2.73-.285c-3.13-.326-6.253-.725-9.379-1.093s-6.245-.814-9.368-1.216l.751-.382-4.262,6.672q-2.094,3.358-4.124,6.754l-.543.911-.245-1.034-.906-3.822c-.3-1.275-.631-2.542-.957-3.81-.642-2.54-1.372-5.059-2.054-7.589l.48.57-7.514-2.806c-1.255-.461-2.49-.971-3.736-1.455s-2.472-1.013-3.709-1.517l-2.537-1.033,2.451-1.267c2.58-1.333,5.195-2.6,7.791-3.9,2.616-1.262,5.221-2.546,7.855-3.774l-.546.88c.11-2.946.311-5.906.54-8.749C644.541,1955.9,644.735,1953.164,644.876,1950.589Z" transform="translate(-626.186 -1950.589)" fill="#fff1f1"/>
          </g>
          <g id="グループ_247" data-name="グループ 247">
            <path id="パス_471" data-name="パス 471" d="M642.928,1948.721l-.191,16.752-15.524,7.911L642,1979.578l3.539,15.309,8.078-13.608,18.8,1.782-7.709-11.516,4.79-14.719-14.416,4.825Z" transform="translate(-624.186 -1948.589)" fill="#ffc6c6"/>
            <path id="パス_472" data-name="パス 472" d="M642.979,1948.853c.078,3.009.208,5.855.409,8.628.165,2.741.3,5.366.349,8l.011.572-.557.309c-2.541,1.408-5.111,2.762-7.669,4.137-2.579,1.335-5.138,2.709-7.733,4.013l-.086-2.3c1.227.529,2.466,1.028,3.683,1.581s2.448,1.07,3.658,1.641l7.27,3.388.407.19.074.38c.5,2.573.947,5.157,1.485,7.72.264,1.283.52,2.567.813,3.844l.863,3.832-.788-.123q2.013-3.405,3.955-6.854l3.816-6.936.228-.414.523.032c3.143.192,6.291.331,9.43.566s6.282.421,9.417.689l-1.218,2.043-7.867-11.409-.411-.6.23-.709,2.391-7.361,2.48-7.331,1.8,1.788c-4.835,1.519-9.678,3.017-14.541,4.453l-.671.2-.4-.469c-1.83-2.121-3.621-4.279-5.471-6.524l-2.848-3.461Q644.542,1950.632,642.979,1948.853Zm-.1-.264,3.046,2.947,3.227,3c2.2,2.066,4.459,4.219,6.679,6.408l-1.077-.272c4.748-1.781,9.516-3.5,14.291-5.2l2.658-.945-.855,2.733-2.309,7.387-2.4,7.358-.181-1.3,7.551,11.621,1.512,2.328-2.73-.285c-3.13-.326-6.253-.725-9.379-1.093s-6.245-.814-9.368-1.216l.751-.382-4.262,6.672q-2.094,3.358-4.124,6.754l-.543.911-.245-1.034-.906-3.822c-.3-1.275-.631-2.542-.957-3.81-.642-2.54-1.372-5.059-2.054-7.589l.48.57-7.514-2.806c-1.255-.461-2.49-.971-3.736-1.455s-2.472-1.013-3.709-1.517l-2.537-1.033,2.451-1.267c2.58-1.333,5.195-2.6,7.791-3.9,2.616-1.262,5.221-2.546,7.855-3.774l-.546.88c.11-2.946.311-5.906.54-8.749C642.541,1953.9,642.735,1951.164,642.876,1948.589Z" transform="translate(-624.186 -1948.589)" fill="#fff1f1"/>
          </g>
        </g>
      </g>
      <g id="グループ_256" data-name="グループ 256" transform="translate(0 66.909)">
        <path id="パス_473" data-name="パス 473" d="M603.168,1993.679s23-1,21.625,27.125c8.25,2.375,10.25,8.875,9.375,15.25s-5,13.625-19.375,16.5c-2.875,2.75-6.625,11.375-17.125,10.5-13.771-1.148-14.875-9.25-14.875-9.25s-26.25-.125-25.25-20.75,17.75-21.625,17.75-21.625S580.543,1992.179,603.168,1993.679Z" transform="translate(-554.849 -1990.731)" fill="#fff"/>
        <g id="グループ_255" data-name="グループ 255" transform="translate(0 0)">
          <g id="グループ_250" data-name="グループ 250" transform="translate(0 18.648)" style="isolation: isolate">
            <path id="パス_474" data-name="パス 474" d="M580.918,2009.554a41.857,41.857,0,0,0-8.176,3.236,26.017,26.017,0,0,0-6.669,4.857,20.154,20.154,0,0,0-5.548,14.24c-.171,5.421,1.095,10.64,4.7,14.422a21.513,21.513,0,0,0,6.666,4.61,36.552,36.552,0,0,0,8.357,2.635,23.274,23.274,0,0,1-9.2.019,20.6,20.6,0,0,1-8.809-3.95,17.759,17.759,0,0,1-3.485-3.67,18.341,18.341,0,0,1-2.385-4.484,24.018,24.018,0,0,1-1.246-4.843,31.9,31.9,0,0,1-.271-4.881,24.554,24.554,0,0,1,2.107-9.651,20.3,20.3,0,0,1,6.177-7.786,23.435,23.435,0,0,1,8.62-4.108A25.21,25.21,0,0,1,580.918,2009.554Z" transform="translate(-554.849 -2009.379)" fill="#ffc6c6"/>
          </g>
          <g id="グループ_252" data-name="グループ 252" transform="translate(26.069 58.573)" style="isolation: isolate">
            <g id="グループ_251" data-name="グループ 251">
              <path id="パス_475" data-name="パス 475" d="M580.918,2050.22a32.655,32.655,0,0,0,8.3,7.351,17.654,17.654,0,0,0,9.426,2.39,17.279,17.279,0,0,0,9.3-3.032,39.128,39.128,0,0,0,8.227-7.625,19.74,19.74,0,0,1-5.417,10.966,18.044,18.044,0,0,1-5.364,3.8,17.1,17.1,0,0,1-6.558,1.542,17.738,17.738,0,0,1-6.638-.979,16.9,16.9,0,0,1-5.7-3.43A17.23,17.23,0,0,1,580.918,2050.22Z" transform="translate(-580.918 -2049.304)" fill="#ffc6c6"/>
            </g>
          </g>
          <g id="グループ_253" data-name="グループ 253" transform="translate(60.069 26.134)" style="isolation: isolate">
            <path id="パス_476" data-name="パス 476" d="M614.918,2016.887a25.576,25.576,0,0,1,13.56,3.249,18.164,18.164,0,0,1,5.708,4.987,15.248,15.248,0,0,1,1.916,3.551,15.032,15.032,0,0,1,.859,3.981,18.009,18.009,0,0,1,.022,2.012l-.232,1.918-.142.953-.262.941c-.19.622-.333,1.257-.578,1.859a17.292,17.292,0,0,1-4.363,6.3,19.118,19.118,0,0,1-13.155,4.916c4.012-2.193,7.551-4.772,9.887-7.948a16.629,16.629,0,0,0,2.555-5.041c.12-.449.2-.914.307-1.364l.154-.679.051-.709.147-1.407c-.025-.444.023-.9-.043-1.33a10.961,10.961,0,0,0-1.574-4.959,18.048,18.048,0,0,0-3.789-4.331A56.6,56.6,0,0,0,614.918,2016.887Z" transform="translate(-614.918 -2016.865)" fill="#ffc6c6"/>
          </g>
          <g id="グループ_254" data-name="グループ 254" transform="translate(22.069)" style="isolation: isolate">
            <path id="パス_477" data-name="パス 477" d="M624.918,2016.22a24.346,24.346,0,0,0-7.471-13.451A27.863,27.863,0,0,0,604,1996.82a29.558,29.558,0,0,0-14.772.7,22.86,22.86,0,0,0-6.668,3.6,27.585,27.585,0,0,0-5.639,5.774,20.308,20.308,0,0,1,10.5-13.445,17.308,17.308,0,0,1,2.068-.948l1.06-.43c.358-.129.727-.209,1.092-.316.732-.2,1.467-.409,2.21-.575l2.247-.3,1.129-.137,1.123-.006,2.25,0c1.488.083,2.945.336,4.419.509q2.171.495,4.32,1.084l2.1.821a12.392,12.392,0,0,1,2.06.933l1.988,1.114a21.972,21.972,0,0,1,1.858,1.342l.908.7c.287.251.557.529.828.8.527.559,1.1,1.057,1.573,1.664A19.622,19.622,0,0,1,624.918,2016.22Z" transform="translate(-576.918 -1990.731)" fill="#ffc6c6"/>
          </g>
        </g>
      </g>
      <g id="グループ_266" data-name="グループ 266" transform="translate(710.366 203.073)">
        <path id="パス_478" data-name="パス 478" d="M891.988,2628.858s-27.545,5.994-31.373-25.443c-10.413-.877-14.093-7.65-14.282-14.9s3.374-16.15,20.151-22.387c2.931-3.656,5.772-14,18.607-15.265,16.833-1.655,19.745,7.083,19.745,7.083s31.685-5.438,34.5,17.613-17.191,27.718-17.191,27.718S919.57,2625.713,891.988,2628.858Z" transform="translate(-843.696 -2548.095)" fill="#fff"/>
        <g id="グループ_265" data-name="グループ 265">
          <g id="グループ_258" data-name="グループ 258" transform="translate(64.255 7.749)">
            <g id="グループ_257" data-name="グループ 257">
              <path id="パス_479" data-name="パス 479" d="M915.728,2606.552a55.282,55.282,0,0,0,9.081-5.02,34.63,34.63,0,0,0,7.321-6.62,21.413,21.413,0,0,0,4.164-8.276,23.313,23.313,0,0,0,.3-9.246c-.857-6.349-3.785-12.1-9.226-15.346a27.55,27.55,0,0,0-9.112-3.43,48.291,48.291,0,0,0-10.308-.927,30.864,30.864,0,0,1,10.576-1.843,25.864,25.864,0,0,1,10.933,2.262,20.75,20.75,0,0,1,8.818,7.615,25.939,25.939,0,0,1,2.584,5.261,33.451,33.451,0,0,1,1.342,5.579l.187,1.42c.044.477.061.961.092,1.441a25.093,25.093,0,0,1,.008,2.9,24.118,24.118,0,0,1-1.035,5.769,23.381,23.381,0,0,1-6.049,9.818,30.447,30.447,0,0,1-9.274,6.052A33.47,33.47,0,0,1,915.728,2606.552Z" transform="translate(-907.951 -2555.844)" fill="#ffc6c6"/>
            </g>
          </g>
          <g id="グループ_260" data-name="グループ 260" transform="translate(21.763)">
            <g id="グループ_259" data-name="グループ 259">
              <path id="パス_480" data-name="パス 480" d="M907.8,2561.52a33.876,33.876,0,0,0-11.329-6.71,23.361,23.361,0,0,0-12.012-.658,22.644,22.644,0,0,0-10.783,5.4,32.762,32.762,0,0,0-4.423,4.749,47.255,47.255,0,0,0-3.79,5.719,21.2,21.2,0,0,1,1.423-7.019,24.2,24.2,0,0,1,3.6-6.429,21.928,21.928,0,0,1,12.835-7.957,21.636,21.636,0,0,1,14.99,2.043A20.412,20.412,0,0,1,907.8,2561.52Z" transform="translate(-865.459 -2548.095)" fill="#ffc6c6"/>
            </g>
          </g>
          <g id="グループ_262" data-name="グループ 262" transform="translate(0 19.879)">
            <g id="グループ_261" data-name="グループ 261">
              <path id="パス_481" data-name="パス 481" d="M873.29,2605.655a32.027,32.027,0,0,1-8.073.609,32.555,32.555,0,0,1-8.16-1.388,23.411,23.411,0,0,1-3.981-1.626,18.638,18.638,0,0,1-3.724-2.475,15.553,15.553,0,0,1-5.044-7.818,17.505,17.505,0,0,1-.46-2.312,22.45,22.45,0,0,1-.149-2.255,19.067,19.067,0,0,1,.493-4.516,18.867,18.867,0,0,1,4.041-7.914,23.593,23.593,0,0,1,6.591-5.29,25.792,25.792,0,0,1,3.753-1.68,20.222,20.222,0,0,1,3.931-1.016c-4.36,3.076-8.21,6.579-10.679,10.62a17.4,17.4,0,0,0-2.365,6.34,15.277,15.277,0,0,0-.168,3.313c0,.553.09,1.124.142,1.67a12.7,12.7,0,0,0,.336,1.541,9.919,9.919,0,0,0,1.209,2.844,11.545,11.545,0,0,0,1.977,2.5,21.944,21.944,0,0,0,5.737,3.942A71.767,71.767,0,0,0,873.29,2605.655Z" transform="translate(-843.696 -2567.974)" fill="#ffc6c6"/>
            </g>
          </g>
          <g id="グループ_264" data-name="グループ 264" transform="translate(17.659 60.422)">
            <g id="グループ_263" data-name="グループ 263">
              <path id="パス_482" data-name="パス 482" d="M861.359,2608.517a25.828,25.828,0,0,0,4.78,8.224,24.638,24.638,0,0,0,7,5.64,31.781,31.781,0,0,0,8.44,2.852c.738.135,1.5.193,2.248.3.755.077,1.489.239,2.257.251,1.533.016,3.06.168,4.592.11a39.454,39.454,0,0,0,17.553-3.987,28.814,28.814,0,0,0,7.306-5.461,29.58,29.58,0,0,0,5.536-7.793,21.753,21.753,0,0,1-3.335,9.5,26.017,26.017,0,0,1-7.157,7.546c-5.811,4.047-12.97,5.779-19.808,5.866a23.635,23.635,0,0,1-2.589-.068l-2.589-.14c-.861-.054-1.726-.265-2.587-.392-.86-.162-1.725-.264-2.574-.49l-2.534-.771c-.419-.137-.845-.241-1.254-.413l-1.217-.553c-.8-.391-1.633-.692-2.393-1.161l-2.256-1.431C864.972,2622,861.221,2615.2,861.359,2608.517Z" transform="translate(-861.355 -2608.517)" fill="#ffc6c6"/>
            </g>
          </g>
        </g>
      </g>
    </g>
  </g>
</svg>
