<svg xmlns="http://www.w3.org/2000/svg" width="184.98" height="201.096" viewBox="0 0 184.98 201.096">
  <g id="グループ_326" data-name="グループ 326" transform="translate(-50.592 -530.234)">
    <g id="グループ_156" data-name="グループ 156" transform="translate(50.592 531.324)" opacity="0.996">
      <ellipse id="楕円形_7" data-name="楕円形 7" cx="80.53" cy="8.05" rx="80.53" ry="8.05" transform="matrix(-1, -0.017, 0.017, -1, 161.036, 200.006)" fill="#242424" opacity="0.34"/>
      <g id="グループ_145" data-name="グループ 145" transform="translate(13.434 0)">
        <path id="パス_352" data-name="パス 352" d="M59.119,53.009c-5.021,4.628-46.445,11.6-40.42-8.084C24.294,26.645,35.517,4.7,29.252.573a3.727,3.727,0,0,0-3.6-.208C19.423,3.24,8.258,20.392,6.9,42.044c-1.506,24,13.34,27.271,28.017,26.772,9.363,0,19.676,13.225,3.782,24.2C23.66,103.4-3.671,117.064.411,121.777c8.048,9.293,24.927-2.8,33.281-7.622,22.175-12.8,28.437-23.357,38.6-21.053s9.077,5.146,7.25,8.862-5.582,11.124,3.831,11.561,25.832,1.385,26.977,4.425c1.365,3.626-9.189,7.452-1.142,8.525,4.89.652,11.792-5.246,12.68-9.18s-1.775-6.776-9.541-7.213S95.4,107.631,95.514,102.65c.132-5.983-1.412-17.732,10.226-19.507.079-.012.16-.021.24-.029,36.942-3.39,58.511-7.355,62.722-13.687s.444-11.147-6.434-9.836-38.942,13.544-55.8,14.2S88.192,69.615,95.514,59.137" transform="translate(0 62.32)" fill="#f9e2a0" stroke="#231815" stroke-miterlimit="10" stroke-width="2"/>
        <path id="パス_353" data-name="パス 353" d="M0,70.98C3.137,60.713,18.153,12.307,30.659,3.2c8.067-5.873,19.394-3.707,18.253,6.845S30.232,57,27.094,66.131" transform="translate(56.288 0)" fill="#f9e2a0" stroke="#231815" stroke-miterlimit="10" stroke-width="2"/>
        <path id="パス_354" data-name="パス 354" d="M29.833,15.491c3.122-.841,20.645-.521,25.949-5.738s-.649-7.576-3.971-8.366C34.373-2.76,13.473,2.494,5.74,15.783c-8.968,15.41-9.1,38.039,11.793,49.552S69.179,76.824,82.621,69c20.43-11.889,22.939-34.9,12.808-48.637C84.148,5.069,65.191,3.565,57.421,4.406" transform="translate(30.221 60.046)" fill="#f9e2a0" stroke="#231815" stroke-miterlimit="10" stroke-width="2"/>
        <path id="パス_355" data-name="パス 355" d="M0,.328C.347,2.175,1.419,8.054,1.153,9.207c5.016-1.161,11.633-3.315,9.976-6.862S0,.328,0,.328Z" transform="translate(70.453 62.843)" fill="#fff" stroke="#231815" stroke-linecap="round" stroke-linejoin="round" stroke-width="0.997"/>
        <path id="パス_357" data-name="パス 357" d="M0,2.173C1.7,4.055,4.543,8.291,5,9.947c.148,5.046-3.113,21.239,3.928,23.82S33.09,39.738,35.94,40c3.377-1.291,7.011-14.718,7.731-15.726,2.6-.407,4.662-.276,5.5.875-.89,3.461-4.935,16.392-2.156,17.934,5.091,2.389,26.5,4.04,31.135.251,3.126-5.392,6.813-18.648,7.443-20.7,2.713-1.568,5.223-2.118,7.568-1.482h0q-.288-1.455-.71-2.866h0c-1.76-.432-4.6.363-7.224.951-12.482-5.887-31.506.4-35.265,2.484-.806-1.275-2.771-1.417-5.5-1.269C39.9,12.407,13.416,8.314,7.691,6.837A51.4,51.4,0,0,0,1.878,0h0A25.665,25.665,0,0,0,0,2.172Z" transform="translate(37.552 71.302)" fill="#231815"/>
        <path id="パス_358" data-name="パス 358" d="M.551,2.526C2.025,1.052,7.225-1.288,15.545.879s13.174,4.767,12.307,7.28-10.747,3.294-17.681,1.3S-1.7,4.866.551,2.526Z" transform="translate(64.149 117.074)" fill="#fff" stroke="#231815" stroke-miterlimit="10" stroke-width="1.495"/>
        <path id="パス_359" data-name="パス 359" d="M27.621,7.264C25.308,6.191,5.418.851,0,0" transform="translate(63.661 118.833)" fill="none" stroke="#231815" stroke-linecap="round" stroke-miterlimit="10" stroke-width="0.997"/>
        <path id="パス_360" data-name="パス 360" d="M4.253,0A29.077,29.077,0,0,0,0,5.279" transform="translate(68.889 118.375)" fill="none" stroke="#231815" stroke-linecap="round" stroke-miterlimit="10" stroke-width="0.997"/>
        <path id="パス_361" data-name="パス 361" d="M4.475,0C3.166,1.224.21,6.671,0,7.26" transform="translate(72.434 118.058)" fill="none" stroke="#231815" stroke-linecap="round" stroke-miterlimit="10" stroke-width="0.997"/>
        <path id="パス_362" data-name="パス 362" d="M3.841,0C3.377.76,0,7.978,0,7.978" transform="translate(76.141 118.593)" fill="none" stroke="#231815" stroke-linecap="round" stroke-miterlimit="10" stroke-width="0.997"/>
        <line id="線_10" data-name="線 10" x1="2.804" y2="8.019" transform="translate(79.973 119.1)" fill="none" stroke="#231815" stroke-linecap="round" stroke-miterlimit="10" stroke-width="0.997"/>
        <line id="線_11" data-name="線 11" x1="2.035" y2="6.852" transform="translate(83.207 120.262)" fill="none" stroke="#231815" stroke-linecap="round" stroke-miterlimit="10" stroke-width="0.997"/>
        <line id="線_12" data-name="線 12" x1="1.613" y2="5.649" transform="translate(86.116 121.248)" fill="none" stroke="#231815" stroke-linecap="round" stroke-miterlimit="10" stroke-width="0.997"/>
        <path id="パス_363" data-name="パス 363" d="M0,4.933C2.7,2.7,8.683-2.812,13.729,1.764" transform="translate(93.51 77.689)" fill="none" stroke="#231815" stroke-linecap="round" stroke-miterlimit="10" stroke-width="2.991"/>
        <path id="パス_364" data-name="パス 364" d="M5.694,5.777C4.92,3.641,3.272-.633,0,.079" transform="translate(73.299 75.9)" fill="none" stroke="#231815" stroke-linecap="round" stroke-miterlimit="10" stroke-width="2.991"/>
        <path id="パス_356" data-name="パス 356" d="M17.318,13.991C14.8,19.147,8.711,26.567,4.462,24.052s-7.44-14.415,0-20.877S22.852.534,16.312,10.847,6.071,22.794,4.462,17.638s.782-15.972,8.831-13.96c2.893,1.006-1.761,14.086-4.653,12.2S6.026,7.828,9.157,7.7s1.146,3.647,0,4.024" transform="translate(82.086 5.452)" fill="none" stroke="#231815" stroke-miterlimit="10" stroke-width="1.495"/>
      </g>
    </g>
    <text id="とまれ君" transform="translate(114.568 676.911) rotate(7)" fill="#1a1a1a" font-size="10" font-family="TA-F1blockline" letter-spacing="0.05em"><tspan x="0" y="0">とまれ君</tspan></text>
  </g>
</svg>
