<svg xmlns="http://www.w3.org/2000/svg" width="278.001" height="358.001" viewBox="0 0 278.001 358.001">
  <g id="グループ_340" data-name="グループ 340" transform="translate(-544 -2453)">
    <circle id="楕円形_8" data-name="楕円形 8" cx="138.001" cy="138.001" r="138.001" transform="translate(545 2534)" fill="none" stroke="#f0c228" stroke-miterlimit="10" stroke-width="2"/>
    <text id="_2" data-name="2" transform="translate(558 2592)" fill="#f0c228" font-size="120" font-family="NotoSansJP-Black, Noto Sans JP" font-weight="800"><tspan x="0" y="0">2</tspan></text>
    <g id="グループ_299" data-name="グループ 299" transform="translate(239.422 2309.175)">
      <path id="パス_514" data-name="パス 514" d="M511.171,330.353v-.166c-7.572.007-23.268-.121-35.125.023-5.656.069-11.616.139-17.272.208-27.673.34-55.044.215-82.72.554-.311,22.887-.629,45.781-.075,68.662,27.7-.341,55.093-.059,82.8-.4,5.656-.069,11.616-.139,17.272-.208,11.817-.145,27.75.136,35.345.133C511.282,376.316,511.169,352.48,511.171,330.353Zm-7.578,61.769c-7.343-.032-16.606-.264-27.547-.129-5.657.068-11.616.137-17.272.208-27.132.332-48.145.069-75.026.379a1.737,1.737,0,0,1-1.737-1.713c-.484-21.131-.2-31.662.092-52.807a1.739,1.739,0,0,1,1.7-1.729c26.869-.316,47.859-.2,74.973-.535,5.656-.069,11.615-.139,17.272-.208,10.986-.134,20.055-.033,27.351-.023a1.726,1.726,0,0,1,1.707,1.74c.023,6.968.114,33.43.205,53.055a1.727,1.727,0,0,1-1.7,1.759Z" transform="translate(0.39 0.389)" fill="#fff"/>
      <path id="パス_515" data-name="パス 515" d="M511.171,330.353v-.166c-7.572.007-23.268-.121-35.125.023-5.656.069-11.616.139-17.272.208-27.673.34-55.044.215-82.72.554-.311,22.887-.629,45.781-.075,68.662,27.7-.341,55.093-.059,82.8-.4,5.656-.069,11.616-.139,17.272-.208,11.817-.145,27.75.136,35.345.133C511.282,376.316,511.169,352.48,511.171,330.353Z" transform="translate(0.39 0.389)" fill="#fff"/>
      <path id="パス_516" data-name="パス 516" d="M439.417,371.606c2.21-1.765,6.011-4.337,8.315-4.95a2.892,2.892,0,0,0,1.2-.506,16.166,16.166,0,0,0,2.206-2.972c2.2,3.355,3.638,6.334,6.839,8.729,2.785-2.983,6.561-6.5,8.726-9.784q1.453,1.318,2.911,2.629a11.819,11.819,0,0,0,2.349,1.787,13.436,13.436,0,0,0,2.1.8c2.37.772,4.749,1.084,5.31,1.375.688,1.538.7,5.241.4,7.409-.292,2.117-2.443,1.924-4.154,1.938-5.732.048-14.121.578-18.2.611-3.04.025-15.214-.47-17.619-.317-2.385.153-7.83.656-6.613-.8C434.457,376.231,438.669,372.2,439.417,371.606Z" transform="translate(25.926 14.633)" fill="#464646"/>
      <path id="パス_517" data-name="パス 517" d="M428.225,339.193c-10.6.087-17.862,9.454-17.775,20.346.1,12.607,7.1,20.52,18.1,20.429,11.255-.09,17.873-8.117,17.774-20.725C446.235,348.279,438.792,339.106,428.225,339.193Z" transform="translate(15.877 4.421)" fill="#464646"/>
      <path id="パス_518" data-name="パス 518" d="M512.824,330.743v-.166a1.28,1.28,0,0,0-1.263-1.263c-6.8.006-13.6-.046-20.4-.046-8.35,0-16.7.094-25.045.194q-14.264.171-28.529.272-14.394.085-28.786.126-14.35.063-28.7.2-1.825.02-3.65.042a1.286,1.286,0,0,0-1.265,1.263c-.244,17.84-.491,35.683-.327,53.525q.072,7.569.249,15.136a1.284,1.284,0,0,0,1.265,1.265c9.671-.118,19.342-.162,29.013-.181,9.648-.02,19.3-.017,28.946-.045q14.4-.043,28.8-.221c8.455-.1,16.908-.225,25.363-.192,7.136.029,14.273.133,21.409.162l1.879,0a1.281,1.281,0,0,0,1.263-1.265q-.063-13.529-.121-27.057-.054-13.438-.082-26.872-.015-7.439-.016-14.876a1.265,1.265,0,0,0-2.528,0q0,13.275.045,26.549.041,13.5.1,27.013.035,7.623.071,15.244l1.265-1.265c-6.759,0-13.516-.107-20.276-.149-8.294-.051-16.583.036-24.876.136-9.555.114-19.109.214-28.665.25-9.649.036-19.3.035-28.946.051-9.665.016-19.33.045-29,.149q-1.828.017-3.652.04l1.265,1.265c-.431-17.837-.334-35.682-.123-53.522q.089-7.573.2-15.142l-1.265,1.265q14.426-.176,28.852-.225,14.394-.067,28.785-.123,14.333-.074,28.663-.25c8.495-.1,16.987-.225,25.483-.233,7.143-.007,14.286.036,21.43.045h1.9l-1.265-1.265v.165A1.265,1.265,0,0,0,512.824,330.743Z" transform="translate(0 0)" fill="#151414"/>
      <path id="パス_519" data-name="パス 519" d="M384.51,355.112q6.845,0,13.689-.012h2.433a1.626,1.626,0,0,0,0-3.252h0q-6.693,0-13.386.013H384.51a1.625,1.625,0,1,0,0,3.251Z" transform="translate(3.6 10.057)" fill="#151414"/>
      <path id="パス_520" data-name="パス 520" d="M399.5,355.112c1.807,0,3.615-.013,5.423-.014a1.625,1.625,0,0,0,0-3.251c-1.807,0-3.615.013-5.423.013a1.626,1.626,0,0,0,0,3.252Z" transform="translate(10.276 10.056)" fill="#151414"/>
      <path id="パス_521" data-name="パス 521" d="M428.62,338.318a18.284,18.284,0,0,0-12,4.641,21.444,21.444,0,0,0-6.389,11.074,27.847,27.847,0,0,0,.382,13.686,19.382,19.382,0,0,0,6.159,9.87,18.554,18.554,0,0,0,10.852,4.005,19.888,19.888,0,0,0,11.582-2.758,18.052,18.052,0,0,0,7.029-8.785A27.467,27.467,0,0,0,447.8,356.92a22.955,22.955,0,0,0-5.078-12.079,18.161,18.161,0,0,0-10.741-6.241,19.879,19.879,0,0,0-3.365-.282,1.265,1.265,0,0,0,0,2.529A15.654,15.654,0,0,1,438.94,344.6a18.922,18.922,0,0,1,5.841,9.75,25.583,25.583,0,0,1-.082,12.221,16.842,16.842,0,0,1-5.03,8.789q-.232.206-.473.4l-.194.156c.159-.126-.051.039-.091.066-.351.26-.71.507-1.083.739q-.535.33-1.1.619c-.189.1-.379.189-.571.277l-.233.105a1.263,1.263,0,0,1-.171.074,17.284,17.284,0,0,1-2.574.814,16.137,16.137,0,0,1-2.628.41,22.493,22.493,0,0,1-2.928.043,15.646,15.646,0,0,1-2.567-.316,14.886,14.886,0,0,1-4.734-1.755,13.812,13.812,0,0,1-3.755-3.126,17.508,17.508,0,0,1-2.678-4.384c-.016-.039-.1-.237-.162-.406q-.128-.329-.244-.661-.262-.748-.471-1.512a25.644,25.644,0,0,1-.621-2.947,27.591,27.591,0,0,1-.2-6.271c.663-7.728,5.718-15.029,13.566-16.567a15.3,15.3,0,0,1,2.857-.275A1.263,1.263,0,0,0,428.62,338.318Z" transform="translate(15.482 4.031)" fill="#151414"/>
      <path id="パス_522" data-name="パス 522" d="M405.147,363.763a5.555,5.555,0,0,0-5.666,5.442c0,.062,0,.126,0,.189,0,3.515,2.191,5.735,5.666,5.735,3.556,0,5.666-2.222,5.666-5.735a5.55,5.55,0,0,0-5.468-5.631C405.279,363.762,405.212,363.762,405.147,363.763Z" transform="translate(10.991 15.363)" fill="#151414"/>
      <path id="パス_523" data-name="パス 523" d="M454.812,361.416q-.078,1.058-.052,2.117a1.319,1.319,0,0,0,.37.895,1.265,1.265,0,0,0,2.159-.895,21.112,21.112,0,0,1,.051-2.117,1.264,1.264,0,0,0-2.158-.895l-.2.257A1.266,1.266,0,0,0,454.812,361.416Z" transform="translate(35.608 13.755)" fill="#191211"/>
      <path id="パス_524" data-name="パス 524" d="M442.114,351.07a25.911,25.911,0,0,0-.334,4.537,21.066,21.066,0,0,0,.278,3.543,17.424,17.424,0,0,0,3,7.882,8.16,8.16,0,0,0,4.21,3.251,1.265,1.265,0,0,0,.672-2.438,6.429,6.429,0,0,1-3.386-3.121,13.9,13.9,0,0,1-1.671-4.234,20.338,20.338,0,0,1-.567-4.154,20.719,20.719,0,0,1,.243-4.595,1.3,1.3,0,0,0-.883-1.555,1.279,1.279,0,0,0-1.557.883Z" transform="translate(29.829 9.297)" fill="#151414"/>
      <path id="パス_525" data-name="パス 525" d="M458.636,356.848c-.233.646-.441,1.3-.655,1.954-.1.308-.2.617-.3.925-.019.059-.039.12-.059.181s-.094.26-.01.042-.013.012-.038.059c-.036.066-.072.132-.111.2-.079.13-.163.259-.251.384-.053.075-.108.147-.162.221.181-.249,0-.006-.042.049-.267.328-.551.64-.848.941a12.9,12.9,0,0,1-.973.89c-.046.038-.3.237-.081.069-.069.053-.14.105-.211.156q-.264.191-.542.361a1.265,1.265,0,0,0,1.276,2.184,12.406,12.406,0,0,0,3.978-3.913,8.749,8.749,0,0,0,.772-1.937c.227-.7.452-1.4.7-2.09a1.271,1.271,0,0,0-.883-1.555,1.3,1.3,0,0,0-1.555.883Z" transform="translate(35.15 11.875)" fill="#151414"/>
      <path id="パス_526" data-name="パス 526" d="M459.642,353.388c.017-.106.045-.207.069-.311.058-.243-.094.1.045-.09.061-.081.2-.236.055-.091.075-.074.236-.2.056-.078.113-.074.256-.114.055-.055.058-.017.377-.085.045-.023.322-.061-.272.055.055.023-.139-.059-.168-.066-.088-.02s.055.032-.068-.056a1.088,1.088,0,0,1,.1.1c.061.068.042.046-.053-.067.035.085.1.178.142.259-.132-.256,0,.02.013.081.029.1.049.2.072.3.077.328-.013-.259.014.072.01.124.019.247.025.371.012.272.012.545,0,.817-.006.136-.016.272-.029.406,0,.039-.052.406-.022.2q-.061.4-.16.8c-.064.251-.136.5-.223.743-.017.051-.146.361-.045.131-.048.106-.1.21-.153.312s-.118.2-.181.295c-.13.21.111-.078-.085.1-.022.019-.237.236-.121.13.1-.09-.16.091-.191.116-.081.042-.064.036.053-.013a1.391,1.391,0,0,1-.156.049,1.465,1.465,0,0,1-.158.039c.14-.016.163-.022.069-.016a.992.992,0,0,1-.16,0c.143.025.169.027.075.007-.3-.124.085.074-.136-.061a1.265,1.265,0,0,0-1.276,2.184,3.078,3.078,0,0,0,3.626-.487,5.846,5.846,0,0,0,1.558-3.122,9.362,9.362,0,0,0,.113-3.749,2.854,2.854,0,0,0-2.464-2.472,2.968,2.968,0,0,0-2.912,2.493,1.3,1.3,0,0,0,.883,1.555,1.279,1.279,0,0,0,1.557-.883Z" transform="translate(36.454 9.331)" fill="#151414"/>
      <path id="パス_527" data-name="パス 527" d="M446.776,353.739c.052-.025.1-.045.155-.069l-.3.127a4.4,4.4,0,0,1,1.083-.309l-.337.045a1.547,1.547,0,0,1,.272-.014,1.3,1.3,0,0,0,1.263-1.263,1.28,1.28,0,0,0-.37-.895l-.256-.2a1.251,1.251,0,0,0-.637-.172,3.237,3.237,0,0,0-.648.065,3.809,3.809,0,0,0-.406.087,6.287,6.287,0,0,0-1.094.415,1.217,1.217,0,0,0-.6,1.259.936.936,0,0,0,.15.47,1.268,1.268,0,0,0,.754.581l.337.046a1.258,1.258,0,0,0,.639-.173Z" transform="translate(31.211 9.675)" fill="#151414"/>
      <path id="パス_528" data-name="パス 528" d="M452.213,353.53a1.5,1.5,0,0,1,.267.014l-.335-.046a3.227,3.227,0,0,1,.765.236l-.3-.127c.176.075.348.156.52.24a.936.936,0,0,0,.47.15,1.3,1.3,0,0,0,1.26-.6,1.276,1.276,0,0,0,.127-.974,1.248,1.248,0,0,0-.581-.756,10.683,10.683,0,0,0-1.106-.478,2.642,2.642,0,0,0-.393-.108,3.1,3.1,0,0,0-.692-.074,1.322,1.322,0,0,0-.893.37,1.407,1.407,0,0,0-.371.893,1.264,1.264,0,0,0,1.265,1.265Z" transform="translate(33.913 9.68)" fill="#151414"/>
      <path id="パス_529" data-name="パス 529" d="M448.615,359.8a18.491,18.491,0,0,1,2.547-.014l-.337-.045a1.641,1.641,0,0,1,.422.106l-.3-.127.025.01a1.375,1.375,0,0,0,.974.127,1.265,1.265,0,0,0,.883-1.555h0a1.239,1.239,0,0,0-.581-.756,2.944,2.944,0,0,0-.533-.2,5.345,5.345,0,0,0-.6-.091,6.5,6.5,0,0,0-.786-.032c-.569,0-1.138.045-1.707.052a1.307,1.307,0,0,0-.893.372,1.263,1.263,0,0,0,.893,2.158Z" transform="translate(32.311 12.448)" fill="#151414"/>
      <path id="パス_530" data-name="パス 530" d="M456.321,342.75a2.858,2.858,0,0,1,1.508.587,5.137,5.137,0,0,1,.564.484,8.5,8.5,0,0,1,.734.812c-.077-.1.145.2.175.24.09.13.182.262.27.395.2.3.377.6.549.914.142.254.275.512.4.773.067.137.132.276.2.415.023.053.2.483.079.179a12.179,12.179,0,0,1-.172,8.669,1.273,1.273,0,0,0,.883,1.555,1.3,1.3,0,0,0,1.557-.882,15.259,15.259,0,0,0,.568-8.856,13.469,13.469,0,0,0-3.356-5.906,5.991,5.991,0,0,0-3.956-1.9,1.265,1.265,0,0,0,0,2.529Z" transform="translate(35.744 4.88)" fill="#151414"/>
      <path id="パス_531" data-name="パス 531" d="M444.307,354.457a16.634,16.634,0,0,1,.406-6.4q.087-.29.191-.577l.082-.22c.136-.354-.1.221.045-.117a9.626,9.626,0,0,1,.483-.941c.163-.279.347-.542.535-.8-.2.278.094-.113.14-.166.111-.13.227-.257.345-.382q.251-.262.523-.5c.1-.085.191-.168.289-.249.056-.045.116-.09.172-.139.176-.153-.231.166-.032.023.341-.246.681-.493,1.028-.73a11.5,11.5,0,0,1,5.93-1.857,14.827,14.827,0,0,1,3.356.191,12.266,12.266,0,0,1,1.474.364c.241.078.481.16.715.259-.191-.079,0,0,.027.014.139.065.275.133.411.205,1.435.763,2.714-1.419,1.275-2.184a13.709,13.709,0,0,0-6.3-1.4,15.121,15.121,0,0,0-7.212,1.642,11.885,11.885,0,0,0-5.664,6.156,17.469,17.469,0,0,0-.749,7.818,1.3,1.3,0,0,0,1.265,1.265,1.272,1.272,0,0,0,1.263-1.265Z" transform="translate(29.775 4.262)" fill="#151414"/>
      <path id="パス_532" data-name="パス 532" d="M450.509,362.546a5.609,5.609,0,0,1-.4.587c-.145.192-.055.069-.023.029-.052.068-.106.134-.159.2-.139.173-.279.344-.421.515q-.512.644-1.084,1.233c-.051.049.267-.091-.064.045a5.354,5.354,0,0,1-.632.186,7.284,7.284,0,0,0-.7.239,16.783,16.783,0,0,0-1.737.812,46.3,46.3,0,0,0-8.45,6.094,37.835,37.835,0,0,0-4.215,4.26,1.3,1.3,0,0,0,0,1.788,1.275,1.275,0,0,0,1.789,0,43.277,43.277,0,0,1,7.942-7.25,38.034,38.034,0,0,1,4.05-2.619c.272-.147.542-.29.818-.423.124-.062.252-.119.377-.178.039-.017.237-.1.074-.033s.071-.029.107-.042a8.224,8.224,0,0,0,2.117-.838,8.407,8.407,0,0,0,1.393-1.481,13.34,13.34,0,0,0,1.4-1.843,1.266,1.266,0,0,0-2.184-1.276Z" transform="translate(25.594 14.548)" fill="#151414"/>
      <path id="パス_533" data-name="パス 533" d="M455.875,363.319c1.07.964,2.132,1.935,3.21,2.889a10.833,10.833,0,0,0,3.475,2.188c1.236.457,2.514.812,3.784,1.156.546.147,1.093.288,1.638.439.181.051.364.1.542.159.079.025.159.058.238.078.244.061-.223-.11-.03-.017a1.3,1.3,0,0,0,1.729-.451,1.275,1.275,0,0,0-.451-1.73,13.623,13.623,0,0,0-2.451-.767c-1.259-.335-2.509-.694-3.748-1.1a8.15,8.15,0,0,1-2.938-1.739c-1.078-.954-2.142-1.927-3.21-2.889-1.207-1.087-3,.7-1.789,1.788Z" transform="translate(35.927 14.22)" fill="#151414"/>
      <path id="パス_534" data-name="パス 534" d="M451.042,344.519l.087.111-.2-.256a11.182,11.182,0,0,1,1.146,1.828,1.282,1.282,0,0,0,.756.581.965.965,0,0,0,.5.023.936.936,0,0,0,.47-.15,1.282,1.282,0,0,0,.581-.756l.045-.337a1.252,1.252,0,0,0-.172-.637,12.666,12.666,0,0,0-1.432-2.2.934.934,0,0,0-.406-.26.953.953,0,0,0-.487-.11,1.265,1.265,0,0,0-1.265,1.265h0l.045.337a1.261,1.261,0,0,0,.325.558Z" transform="translate(33.791 5.831)" fill="#151414"/>
      <path id="パス_535" data-name="パス 535" d="M450.181,343.212a6.222,6.222,0,0,0-4.142,3.157c-.435.733-.744,1.528-1.143,2.278a6.641,6.641,0,0,1-.343.581c-.042.064-.087.126-.13.188-.21.3.156-.169-.085.107a7.336,7.336,0,0,1-.921.889,1.268,1.268,0,0,0,0,1.788,1.3,1.3,0,0,0,1.788,0,7.281,7.281,0,0,0,1.659-1.9c.435-.714.73-1.5,1.125-2.24.189-.356.409-.682.629-1.018.114-.176-.181.2.061-.078.065-.077.132-.153.2-.225a5.166,5.166,0,0,1,.382-.373c.04-.035.237-.191.033-.036.071-.053.143-.106.217-.155a4.624,4.624,0,0,1,.464-.27c.1-.051.208-.092.042-.027.084-.033.169-.064.254-.091a4.024,4.024,0,0,1,.584-.134,1.269,1.269,0,0,0,.883-1.555,1.3,1.3,0,0,0-1.555-.883Z" transform="translate(30.395 6.196)" fill="#151414"/>
      <path id="パス_536" data-name="パス 536" d="M455.236,347.563a6.475,6.475,0,0,1,.478.5c.036.04.071.082.106.124s.145.181.026.032.033.049.046.068c.03.045.061.09.09.134a6.337,6.337,0,0,1,.353.6c.051.1.1.194.145.292.016.036.09.212.019.036-.082-.2.02.055.027.075a6.567,6.567,0,0,1,.348,1.3c.017.1-.007.266-.006-.052,0,.053.013.11.017.162.01.11.016.218.022.328a6.94,6.94,0,0,1-.016.736,1.27,1.27,0,0,0,1.263,1.265,1.294,1.294,0,0,0,1.265-1.265,7.739,7.739,0,0,0-2.4-6.115,1.265,1.265,0,1,0-1.789,1.788Z" transform="translate(35.657 7.189)" fill="#151414"/>
      <path id="パス_537" data-name="パス 537" d="M445.21,364.317c1.736,2.739,3.379,5.582,5.9,7.688a1.264,1.264,0,0,0,1.788-1.788,16.41,16.41,0,0,1-1.693-1.632q-.379-.423-.731-.87c-.025-.032-.186-.244-.058-.072-.045-.064-.1-.127-.143-.191q-.178-.238-.348-.481c-.9-1.272-1.7-2.613-2.532-3.929a1.265,1.265,0,0,0-2.184,1.276Z" transform="translate(31.281 14.763)" fill="#191211"/>
      <path id="パス_538" data-name="パス 538" d="M459.6,361.946a4.616,4.616,0,0,1-.564.895c-.2.27.165-.2-.061.077-.081.1-.162.2-.246.3q-.29.351-.593.694c-1,1.137-2.051,2.229-3.11,3.31-2.193,2.236-4.443,4.416-6.709,6.578-.622.593-1.252,1.178-1.869,1.776-1.171,1.135.619,2.923,1.788,1.789,3.872-3.752,7.877-7.39,11.47-11.418a10.967,10.967,0,0,0,2.077-2.724,1.309,1.309,0,0,0-.451-1.73,1.276,1.276,0,0,0-1.73.451Z" transform="translate(31.74 14.281)" fill="#151414"/>
      <path id="パス_539" data-name="パス 539" d="M445.21,364.317c1.736,2.739,3.379,5.582,5.9,7.688a1.264,1.264,0,0,0,1.788-1.788,16.41,16.41,0,0,1-1.693-1.632q-.379-.423-.731-.87c-.025-.032-.186-.244-.058-.072-.045-.064-.1-.127-.143-.191q-.178-.238-.348-.481c-.9-1.272-1.7-2.613-2.532-3.929a1.265,1.265,0,0,0-2.184,1.276Z" transform="translate(31.281 14.763)" fill="#151414"/>
      <path id="パス_540" data-name="パス 540" d="M462.337,375.27c.924-.452,1.866-.861,2.794-1.3a14.049,14.049,0,0,0,2.551-1.395,1.39,1.39,0,0,0,.581-.756,1.288,1.288,0,0,0-.127-.974,1.274,1.274,0,0,0-1.73-.452,14.052,14.052,0,0,1-2.551,1.4c-.928.439-1.872.85-2.794,1.3a1.273,1.273,0,0,0-.452,1.73,1.3,1.3,0,0,0,1.73.452Z" transform="translate(38.14 18.23)" fill="#151414"/>
      <path id="パス_541" data-name="パス 541" d="M449.6,356.416a1.265,1.265,0,0,0,0-2.529A1.265,1.265,0,0,0,449.6,356.416Z" transform="translate(32.769 10.965)" fill="#151414"/>
    </g>
  </g>
</svg>
