<svg xmlns="http://www.w3.org/2000/svg" width="278.001" height="358.001" viewBox="0 0 278.001 358.001">
  <g id="グループ_341" data-name="グループ 341" transform="translate(-933 -2453)">
    <circle id="楕円形_8" data-name="楕円形 8" cx="138.001" cy="138.001" r="138.001" transform="translate(934 2534)" fill="none" stroke="#305698" stroke-miterlimit="10" stroke-width="2"/>
    <text id="_3" data-name="3" transform="translate(964 2592)" fill="#305698" font-size="120" font-family="NotoSansJP-Black, Noto Sans JP" font-weight="800"><tspan x="0" y="0">3</tspan></text>
    <g id="グループ_300" data-name="グループ 300" transform="translate(394.433 2299.578)">
      <path id="パス_542" data-name="パス 542" d="M663.944,311.059H704.77a10.182,10.182,0,0,1,10.182,10.182h0V423.2a10.179,10.179,0,0,1-10.18,10.179H663.945a10.18,10.18,0,0,1-10.18-10.18V321.239A10.18,10.18,0,0,1,663.944,311.059Z" transform="translate(0.203 0.203)" fill="#fff"/>
      <path id="パス_543" data-name="パス 543" d="M704.973,432.757H664.518a9.574,9.574,0,0,1-8.833-5.369c-1.258-2.616-.888-5.915-.888-8.752V321.882a9.7,9.7,0,0,1,2.856-7.16,9.421,9.421,0,0,1,6.5-2.63c.364,0,.729,0,1.093,0h37.321a15.809,15.809,0,0,1,5.771.622,9.462,9.462,0,0,1,5.99,8.832q0,1.225,0,2.449v93.194c0,2.128.034,4.26,0,6.388a9.453,9.453,0,0,1-9.35,9.18.83.83,0,0,0,0,1.659,11.133,11.133,0,0,0,10.922-9.657,22.146,22.146,0,0,0,.089-2.8V328.826c0-2.446.015-4.894,0-7.34a11.159,11.159,0,0,0-7.209-10.372,16.777,16.777,0,0,0-6.091-.68H665.119c-.437,0-.875-.009-1.312.005a11.1,11.1,0,0,0-7.213,3,11.274,11.274,0,0,0-3.456,8.325V422.7a12.135,12.135,0,0,0,1.452,6.164,11.232,11.232,0,0,0,9.877,5.549h40.506A.83.83,0,0,0,704.973,432.757Z" transform="translate(0 0)" fill="#151414" stroke="#151414" stroke-miterlimit="10" stroke-width="0.5"/>
      <path id="パス_544" data-name="パス 544" d="M700.549,311.059a1.63,1.63,0,0,0-1.076,1.41v1.6a4.147,4.147,0,0,1-4.14,4.147c-3.945.005-9.859.013-13.852.021-3.995-.008-9.909-.016-13.854-.021a4.148,4.148,0,0,1-4.14-4.147v-1.6a1.63,1.63,0,0,0-.979-1.41" transform="translate(3.033 0.203)" fill="#464646"/>
      <path id="パス_545" data-name="パス 545" d="M700.17,310.671c.316-.279-.089,0-.193.064a2.668,2.668,0,0,0-.733.687,3.611,3.611,0,0,0-.392,2.228,4.371,4.371,0,0,1-.344,2.09,3.387,3.387,0,0,1-1.294,1.387,3.637,3.637,0,0,1-1.9.455l-2.395,0-5.361.008q-5.013.008-10.028,0l-5.422-.008-2.563,0a14.985,14.985,0,0,1-2.193-.034,3.352,3.352,0,0,1-2.809-2.929,10.883,10.883,0,0,0-.147-2.711,2.314,2.314,0,0,0-.69-.985,3.26,3.26,0,0,0-.382-.277c-.1-.065-.279-.216-.02.024-.784-.723-1.959.45-1.173,1.173a3.517,3.517,0,0,0,.458.3.733.733,0,0,1,.27.4,5.441,5.441,0,0,1,.009.964,10.691,10.691,0,0,0,.056,1.455,4.97,4.97,0,0,0,2.7,3.753c1.5.724,3.218.524,4.837.527l5.5.008q5.154.008,10.307,0l5.624-.009,2.568,0a8.743,8.743,0,0,0,2.454-.2,5.012,5.012,0,0,0,3.481-3.738,7.146,7.146,0,0,0,.11-1.435,8.039,8.039,0,0,1,.007-1.312.666.666,0,0,1,.3-.392,3.34,3.34,0,0,0,.531-.323c.8-.71-.377-1.88-1.174-1.173Z" transform="translate(2.826 0.004)" fill="#151414"/>
      <path id="パス_546" data-name="パス 546" d="M669.427,394.759h19.1a.727.727,0,0,0,0-1.453h-19.1a.727.727,0,0,0,0,1.453Z" transform="translate(5.046 26.824)" fill="#7c8b8d"/>
      <path id="パス_547" data-name="パス 547" d="M672.287,314.905q4.009,0,8.019,0a.83.83,0,0,0,0-1.659q-4.011,0-8.019,0A.83.83,0,0,0,672.287,314.905Z" transform="translate(5.939 0.91)" fill="#151414"/>
      <path id="パス_548" data-name="パス 548" d="M681.893,315.077a.968.968,0,0,0,0-1.935A.968.968,0,0,0,681.893,315.077Z" transform="translate(9.005 0.877)" fill="#151414"/>
      <circle id="楕円形_12" data-name="楕円形 12" cx="19.992" cy="19.992" r="19.992" transform="translate(662.956 351.607)" fill="none" stroke="#151414" stroke-miterlimit="10" stroke-width="1.5"/>
      <path id="パス_549" data-name="パス 549" d="M671.645,369.514v-20.3l16.313,9.927L671.816,369.71" transform="translate(5.991 12.552)" fill="#464646" stroke="#151414" stroke-linecap="round" stroke-linejoin="round" stroke-width="1"/>
    </g>
  </g>
</svg>
