<svg xmlns="http://www.w3.org/2000/svg" width="41" height="41" viewBox="0 0 41 41">
  <g id="グループ_337" data-name="グループ 337" transform="translate(-604.5 -7395.5)">
    <g id="コンポーネント_13_7" data-name="コンポーネント 13 – 7" transform="translate(605 7396)">
      <circle id="楕円形_20" data-name="楕円形 20" cx="20" cy="20" r="20" fill="none" stroke="#fff" stroke-width="1"/>
    </g>
    <g id="グループ_316" data-name="グループ 316" transform="translate(510.045 7301.183)">
      <path id="パス_554" data-name="パス 554" d="M119,123.58h-8.088a4.106,4.106,0,0,1-4.1-4.1v-8.093a4.106,4.106,0,0,1,4.1-4.1H119a4.106,4.106,0,0,1,4.1,4.1v8.093A4.106,4.106,0,0,1,119,123.58Zm-8.088-14.559a2.367,2.367,0,0,0-2.365,2.365v8.093a2.367,2.367,0,0,0,2.365,2.365H119a2.367,2.367,0,0,0,2.365-2.365v-8.093A2.367,2.367,0,0,0,119,109.021Z" fill="#fff"/>
      <path id="パス_555" data-name="パス 555" d="M184.112,188.682a4.153,4.153,0,1,1,4.153-4.153A4.157,4.157,0,0,1,184.112,188.682Zm0-6.569a2.416,2.416,0,1,0,2.416,2.416A2.419,2.419,0,0,0,184.112,182.113Z" transform="translate(-69.18 -69.126)" fill="#fff"/>
      <circle id="楕円形_19" data-name="楕円形 19" cx="1.107" cy="1.107" r="1.107" transform="translate(118.147 110.047)" fill="#fff"/>
    </g>
  </g>
</svg>
