<svg xmlns="http://www.w3.org/2000/svg" width="492.785" height="172.918" viewBox="0 0 492.785 172.918">
  <g id="Zenryoku_ippanjin" data-name="Zenryoku ippanjin" transform="translate(-155.139 -514.888)" style="isolation: isolate">
    <g id="グループ_332" data-name="グループ 332" style="isolation: isolate">
      <path id="パス_558" data-name="パス 558" d="M179.272,564.566a202.031,202.031,0,0,1,27.631-2.2H209.9L203.559,577.5c-4.224-.264-8.711-.352-13.288-.352a241.069,241.069,0,0,0-32.646,2.113l-.264-13.376c12.231-13.112,27.719-26.663,40.214-35.024a147.849,147.849,0,0,0-29.567,3.345L165.9,520.48c11.44-1.5,24.2-2.816,34.319-3.255l1.409,3.607,12.055-.616a52.59,52.59,0,0,1,1.848,14.607A299.516,299.516,0,0,0,179.272,564.566Z" fill="none" stroke="#fff" stroke-width="2"/>
      <path id="パス_559" data-name="パス 559" d="M243.6,532.447c-1.584,3.609-3.432,7.832-4.664,11.176,8.448-1.319,18.127-2.727,26.4-3.344l-8.711,12.936-15.928.7-3.52-5.1c-.968,2.993-3.08,8.36-3.08,11.528,0,3.784,2.64,5.1,6.6,5.1,5.9,0,14.7-2.991,22.176-5.191L261.11,572.4a46.869,46.869,0,0,1-23.231,6.424c-12.759,0-19.712-6.863-19.712-16.9,0-7.216,5.544-20.327,8.537-26.751l-6.336-10.384c10.647-2.024,19.8-2.992,27.983-3.96l1.408-2.464c7.128-.616,15.4-.88,22.7-.88a111.85,111.85,0,0,1,2.112,13.728C265.334,531.216,252.575,531.744,243.6,532.447Z" fill="none" stroke="#fff" stroke-width="2"/>
      <path id="パス_560" data-name="パス 560" d="M342.421,523.12a229.571,229.571,0,0,0-18.743,51.126l-16.455,3.7c.352-3.08.88-6.16,1.407-9.239-6.511-9.5-11.7-19.271-14.607-29.832-3.872,10.736-6.776,24.64-8.8,37.4L269.3,580.143c3.432-20.064,8.888-40.039,15.311-55.791a118.7,118.7,0,0,1,21.032-6.16c.792,12.583,4.312,22.616,10.736,30.271a198.543,198.543,0,0,1,10.559-31.327Z" fill="none" stroke="#fff" stroke-width="2"/>
      <path id="パス_561" data-name="パス 561" d="M393.9,588.766c-12.584-9.152-23.408-24.639-29.48-39.775l20.592-15.752v-3.7a141.978,141.978,0,0,0-15.136,2.111c-6.951,13.992-11.879,28.424-13.991,43.911a132.052,132.052,0,0,1-16.984,3.256v-.792c0-11.176,5.544-27.543,13.552-43.822L344.8,524a186.563,186.563,0,0,1,47.43-6.248q4.489,0,8.977.265a27.884,27.884,0,0,1,.352,4.839A53.9,53.9,0,0,1,399.8,536.5a225.92,225.92,0,0,1-19.711,13.9c6.952,9.944,18.3,22.967,30.359,30.623Z" fill="none" stroke="#fff" stroke-width="2"/>
      <path id="パス_562" data-name="パス 562" d="M474.6,518.809a257.629,257.629,0,0,0-39.247,38.1,143.038,143.038,0,0,0-4.663,27.807,182.251,182.251,0,0,1-18.569,3.608c.616-10.384,4.664-23.76,7.48-31.415a60.228,60.228,0,0,0-3.872-17.248l-3.432.265a99.2,99.2,0,0,0-7.567-18.568,108.952,108.952,0,0,1,19.975-4.224,135.211,135.211,0,0,1,6.6,25.783,268.7,268.7,0,0,1,23.407-26.927Z" fill="none" stroke="#fff" stroke-width="2"/>
      <path id="パス_563" data-name="パス 563" d="M517.894,550.4l-3.256.44c-4.313,16.456-15.136,27.9-31.68,27.9-15.487,0-23.319-11.088-23.319-23.847,0-20.152,15.223-37.574,35.991-37.574,15.487,0,23.319,10.207,23.319,24.111A40.225,40.225,0,0,1,517.894,550.4Zm-23.848-18.655c-9.327,0-15.575,6.863-19.359,18.919l3.08,1.056a15.571,15.571,0,0,0-.617,4.4c0,4.136,2.025,7.568,7.48,7.568,10.736,0,17.776-13.024,17.776-22.616C502.406,536.144,500.118,531.744,494.046,531.744Z" fill="none" stroke="#fff" stroke-width="2"/>
      <path id="パス_564" data-name="パス 564" d="M590.757,524c-10.911,6.688-25.255,16.279-34.055,22.7,6.863,11.264,16.455,24.9,27.983,34.319L567.7,588.766c-10.648-10.383-18.656-25.7-24.552-39.775-3.08,9.24-6.248,19.8-9.151,29.743l-15.488-1.055c5.456-19.976,11.968-41.8,17.16-57.463a112.4,112.4,0,0,1,18.479-2.9c-2.728,7.479-5.544,15.4-8.36,23.934,4.313-3.432,9.68-7.392,14.168-10.384l-1.144-3.431c5.016-3.872,11.087-8.008,16.015-11.176Z" fill="none" stroke="#fff" stroke-width="2"/>
      <path id="パス_565" data-name="パス 565" d="M646.725,521.184c-9.945,39.071-17.953,57.55-39.776,57.55-11.088,0-19.975-6.423-19.975-17.247v-1.232l-3.7.176a237.446,237.446,0,0,1,9.856-38.367l18.128-5.016c-5.193,15.84-9.5,29.216-9.5,37.4,0,5.28,1.847,8.36,6.336,8.36,10.911,0,15.839-18.48,23.407-46.639Z" fill="none" stroke="#fff" stroke-width="2"/>
    </g>
    <g id="グループ_333" data-name="グループ 333" style="isolation: isolate">
      <path id="パス_566" data-name="パス 566" d="M173.464,668.063l-16.984,1.671c5.369-19.975,11.792-42.327,17.424-59.046a118.868,118.868,0,0,1,19.36-2.463C186.224,626.88,178.3,649.759,173.464,668.063Z" fill="none" stroke="#fff" stroke-width="2"/>
      <path id="パス_567" data-name="パス 567" d="M249.582,630.663c-6.072,5.721-15.4,12.5-24.64,16.192l-9.5-6.864c6.424-3.344,15.135-8.624,19.271-12.672v-6.687a120.237,120.237,0,0,0-14.519,2.112c-6.864,14.871-13.464,35.99-14.608,52.974a189.069,189.069,0,0,1-18.919,3.608c2.288-17.071,10.031-38.543,16.631-54.118l-7.744-9.944c16.192-4.312,31.24-6.6,46.463-6.6,3.08,0,6.16.176,9.24.353a29.226,29.226,0,0,1,.352,5.015A74.176,74.176,0,0,1,249.582,630.663Z" fill="none" stroke="#fff" stroke-width="2"/>
      <path id="パス_568" data-name="パス 568" d="M308.366,630.663c-6.072,5.721-15.4,12.5-24.639,16.192l-9.5-6.864c6.424-3.344,15.135-8.624,19.272-12.672v-6.687a120.223,120.223,0,0,0-14.52,2.112c-6.864,14.871-13.464,35.99-14.608,52.974a188.961,188.961,0,0,1-18.919,3.608c2.288-17.071,10.031-38.543,16.632-54.118l-7.745-9.944c16.192-4.312,31.24-6.6,46.463-6.6,3.08,0,6.16.176,9.24.353a29.226,29.226,0,0,1,.352,5.015A74.175,74.175,0,0,1,308.366,630.663Z" fill="none" stroke="#fff" stroke-width="2"/>
      <path id="パス_569" data-name="パス 569" d="M340.839,670.967a98.251,98.251,0,0,1-3.079-20.5c-15.488,1.76-22.264,8.536-26.576,20.327l-15.751-9.327c10.383-16.632,25.167-35.287,41.359-47.167l-.176-5.192,16.719-1.232c1.76,15.136-.7,47.343,4.576,54.822Zm-3.168-21.824c-.263-3.872-.263-7.831-.263-11.7s0-7.568.088-11.175a121.336,121.336,0,0,0-15.4,17.775c3.784-.351,8.272-.7,11.44-.88Z" fill="none" stroke="#fff" stroke-width="2"/>
      <path id="パス_570" data-name="パス 570" d="M434.029,614.12a229.571,229.571,0,0,0-18.743,51.126l-16.455,3.7c.352-3.08.879-6.16,1.407-9.239-6.511-9.5-11.7-19.271-14.607-29.832-3.872,10.736-6.776,24.64-8.8,37.4L360.9,671.143c3.431-20.064,8.888-40.039,15.311-55.791a118.7,118.7,0,0,1,21.032-6.16c.792,12.583,4.312,22.616,10.735,30.271a198.649,198.649,0,0,1,10.56-31.327Z" fill="none" stroke="#fff" stroke-width="2"/>
      <path id="パス_571" data-name="パス 571" d="M446.7,665.511c-3.96,12.407-12.672,21.3-25.7,21.3l-10.295-12.32c12.584,0,19.447-5.1,22.615-16.191l7.392-26.136-3.608-4.487,5.984-15.928a150.122,150.122,0,0,1,21.823-3.344Z" fill="none" stroke="#fff" stroke-width="2"/>
      <path id="パス_572" data-name="パス 572" d="M475.743,668.063l-16.984,1.671c5.368-19.975,11.792-42.327,17.424-59.046a118.856,118.856,0,0,1,19.359-2.463C488.5,626.88,480.583,649.759,475.743,668.063Z" fill="none" stroke="#fff" stroke-width="2"/>
      <path id="パス_573" data-name="パス 573" d="M563.389,614.12a229.476,229.476,0,0,0-18.743,51.126l-16.457,3.7c.353-3.08.88-6.16,1.409-9.239-6.512-9.5-11.7-19.271-14.608-29.832-3.872,10.736-6.776,24.64-8.8,37.4l-15.927,3.872c3.431-20.064,8.887-40.039,15.311-55.791a118.715,118.715,0,0,1,21.031-6.16c.792,12.583,4.313,22.616,10.737,30.271A198.543,198.543,0,0,1,547.9,608.136Z" fill="none" stroke="#fff" stroke-width="2"/>
    </g>
  </g>
</svg>
