<svg xmlns="http://www.w3.org/2000/svg" width="34.541" height="262.113" viewBox="0 0 34.541 262.113">
  <g id="グループ_330" data-name="グループ 330" transform="translate(-52.861 0)">
    <path id="パス_484" data-name="パス 484" d="M-196.488,710.963v-7.5H-216.4v-5h25.17v12.5Z" transform="translate(278.636 -698.468)" fill="#151414"/>
    <path id="パス_485" data-name="パス 485" d="M-223.544,723.055a26.666,26.666,0,0,0,3.933-1.249l2.646-1.1c-.4-.882-.845-1.727-1.324-2.572a35.542,35.542,0,0,0-2.352-3.454l5.659-2.2c.331.735,1.14,2.388,1.545,3.087.476.955.991,1.948,1.469,2.976,1.874-.808,3.711-1.58,5.477-2.168a51.332,51.332,0,0,0-4.7-4.41l4.041-2.793a61.193,61.193,0,0,1,5.181,4.63l-2.791,2.021a18.233,18.233,0,0,1,4.886-.772c5.879,0,9.444,3.711,9.444,8.011,0,5.549-3.932,8.782-9.37,8.782a18.12,18.12,0,0,1-5.659-1.029l.148-5.475a13.69,13.69,0,0,0,4.886,1.249c2.021,0,4.189-1.1,4.189-3.675,0-1.69-1.543-2.9-3.785-2.9-2.608,0-6.284,1.36-9.922,3.05.259.625.514,1.211.772,1.8,1.543,3.638,4.63,11.869,5.806,15.983l-6.026,1.508a109.559,109.559,0,0,0-4.776-15.066c-.259-.588-.479-1.213-.736-1.8-2.461,1.248-4.629,2.425-6.1,3.087Z" transform="translate(276.405 -695.126)" fill="#151414"/>
    <path id="パス_486" data-name="パス 486" d="M-213.334,743.617c1.874-2.241,4.7-4.483,8.452-4.483,5.146,0,9.3,4.961,9.3,13.118,0,10.289-6.21,15.36-16.132,17.2l-3.307-5.071c8.121-1.249,13.487-3.6,13.487-12.126,0-5.475-1.839-8.011-4.411-8.011-4.116,0-7.606,6.32-7.606,11.061a29.647,29.647,0,0,0,.22,3.454l-5.365.367a41.718,41.718,0,0,1-.476-6.173,85.645,85.645,0,0,1,.955-11.5,39.336,39.336,0,0,0,.293-4.116l5.953.257A51.365,51.365,0,0,0-213.334,743.617Z" transform="translate(277.77 -686.328)" fill="#151414"/>
    <path id="パス_487" data-name="パス 487" d="M-207.441,765.055c-.3,1.139-.661,2.9-.81,3.711a5.006,5.006,0,0,1-.147.625c1.837-.294,3.675-.661,5.512-1.066v5.438a57.922,57.922,0,0,1-6.725,1.139c-.331,1.543-.7,3.123-1.066,4.558a115.2,115.2,0,0,1-5.769,16.755l-6.062-2.021c2.131-3.6,5-11.244,6.356-16.279l.661-2.536c-.661.038-1.248.038-1.837.038-1.837,0-3.269-.075-4.483-.148l-.147-5.437a36.9,36.9,0,0,0,4.668.293c.954,0,1.91-.037,2.865-.072a13.126,13.126,0,0,0,.22-1.47,19.137,19.137,0,0,0,.11-4.007Zm4.042,20.1a12.857,12.857,0,0,0-.479,2.866c0,1.507,1.14,2.462,4.3,2.462a45.328,45.328,0,0,0,7.717-.772l-.22,5.549a58.624,58.624,0,0,1-7.533.514c-6.32,0-9.664-2.278-9.664-5.953a25.24,25.24,0,0,1,.7-5.144Zm-2.647-9.223c2.095-.184,4.814-.367,7.129-.367,2.021,0,4.19.11,6.394.294l-.11,5.255a52.172,52.172,0,0,0-6.284-.478,55.182,55.182,0,0,0-7.129.4Z" transform="translate(276.729 -677.817)" fill="#151414"/>
    <path id="パス_488" data-name="パス 488" d="M-215.476,799.449c0,2.352,0,4.7.22,7.129.441,4.7,1.139,8.012,3.234,8.012,1.654,0,2.94-4.483,3.454-6.945l4.41,5.4c-2.535,6.393-4.814,8.561-7.974,8.561-4.261,0-7.753-3.564-8.744-13.412-.369-3.417-.406-7.57-.406-9.847a21.525,21.525,0,0,0-.329-3.9l6.65.072A33.51,33.51,0,0,0-215.476,799.449Zm24.767,14.882-5.732,2.2c-.514-5.438-2.278-14.918-6.5-19.511l5.512-1.8C-193.906,799.377-191.039,809.115-190.709,814.331Z" transform="translate(277.009 -668.485)" fill="#151414"/>
    <path id="パス_489" data-name="パス 489" d="M-214.548,840.506c0,2.02,1.875,3.564,6.725,3.564A52.374,52.374,0,0,0-195,842.637l.037,6.209a61.025,61.025,0,0,1-12.641,1.177c-8.746,0-12.861-2.94-12.861-8.122a24.588,24.588,0,0,1,.736-5.292l5.694.478A16.874,16.874,0,0,0-214.548,840.506Zm6.579-18.63c3.6,0,8.011-.22,10.839-.514V827.2c-2.535.22-7.312.406-10.8.406-3.858,0-7.019-.185-9.994-.369v-5.8A94.973,94.973,0,0,0-207.969,821.875Z" transform="translate(277.367 -660.08)" fill="#151414"/>
    <path id="パス_490" data-name="パス 490" d="M-209.193,856.458c2.647-1.505,5.365-2.9,6.908-3.822a26.738,26.738,0,0,0,3.748-2.424l3.014,5.034c-1.251.734-2.537,1.47-4.007,2.2a95.575,95.575,0,0,0-9.554,5c-2.791,1.836-4.812,3.747-4.812,6.137,0,2.352,2.314,3.491,6.945,3.491a58.328,58.328,0,0,0,11.868-1.433l-.074,6.319a67.643,67.643,0,0,1-11.649.92c-7.421,0-13.155-1.984-13.155-8.673,0-4.078,2.572-7.055,5.879-9.553-1.652-3.088-3.343-6.761-4.959-10.546l5.474-2.242A74.461,74.461,0,0,0-209.193,856.458Z" transform="translate(277.524 -652.112)" fill="#151414"/>
    <path id="パス_491" data-name="パス 491" d="M-206.356,874.274a31.583,31.583,0,0,1-.808,3.307,81.223,81.223,0,0,0,9.7-1.029l-.038,5.034c-3.344.441-7.752.772-11.611.919a24.518,24.518,0,0,1-1.4,2.572,17.4,17.4,0,0,1,3.563-.368,5.15,5.15,0,0,1,4.778,2.534c1.469-.7,2.644-1.175,3.894-1.762,1.58-.661,3.087-1.361,4.63-2.095l2.131,5.034c-1.286.367-3.528,1.175-4.924,1.726-1.36.516-3.123,1.214-5.034,2.059.037,1.983.11,4.373.147,5.99H-206.5c.075-.919.147-2.278.185-3.6-2.242,1.323-3.272,2.462-3.272,3.932,0,1.507,1.139,2.131,4.52,2.131a55.885,55.885,0,0,0,10.473-1.1l-.182,5.622a94.735,94.735,0,0,1-10.4.626c-5.916,0-10.142-1.545-10.142-6.32,0-4.742,4.3-7.717,8.268-9.811a2.622,2.622,0,0,0-1.984-.772,8.536,8.536,0,0,0-5.29,2.425,43.432,43.432,0,0,0-3.345,4.078l-4.665-3.49a34.039,34.039,0,0,0,7.715-9.3c-1.47,0-4.116-.075-6.025-.257v-5.034a46.921,46.921,0,0,0,6.5.441h1.4a21.7,21.7,0,0,0,.623-3.932Z" transform="translate(276.781 -643.689)" fill="#151414"/>
  </g>
</svg>
