<svg xmlns="http://www.w3.org/2000/svg" width="34.246" height="227.828" viewBox="0 0 34.246 227.828">
  <g id="グループ_331" data-name="グループ 331" transform="translate(0 -175.868)">
    <path id="パス_492" data-name="パス 492" d="M-263.544,846.366a26.5,26.5,0,0,0,3.933-1.25l2.646-1.1c-.4-.882-.845-1.726-1.324-2.572a35.713,35.713,0,0,0-2.352-3.454l5.659-2.2c.331.734,1.14,2.387,1.545,3.085.476.957.991,1.949,1.469,2.978,1.874-.808,3.711-1.58,5.477-2.169a51.358,51.358,0,0,0-4.7-4.41l4.041-2.793a60.983,60.983,0,0,1,5.181,4.631l-2.791,2.021a18.18,18.18,0,0,1,4.886-.772c5.879,0,9.444,3.711,9.444,8.009,0,5.55-3.932,8.784-9.37,8.784a18.081,18.081,0,0,1-5.659-1.03l.148-5.474a13.716,13.716,0,0,0,4.886,1.249c2.021,0,4.189-1.1,4.189-3.675,0-1.69-1.543-2.9-3.785-2.9-2.608,0-6.284,1.359-9.922,3.05.259.626.514,1.213.772,1.8,1.543,3.639,4.63,11.869,5.806,15.985l-6.026,1.507a109.6,109.6,0,0,0-4.776-15.065c-.259-.588-.479-1.214-.736-1.8-2.461,1.248-4.629,2.424-6.1,3.085Z" transform="translate(263.91 -656.608)" fill="#151414"/>
    <path id="パス_493" data-name="パス 493" d="M-253.729,868.221c2.206-.626,7.9-2.537,12.016-2.537,5.769,0,9.811,3.6,9.811,8.82,0,6.137-5.034,11.061-16.977,11.722l-2.2-5.255c7.605-.148,13.559-1.984,13.559-6.542,0-1.983-1.324-3.932-4.448-3.932-4.226,0-10.473,2.829-13.853,4.3l-2.2-5.585A41.613,41.613,0,0,0-253.729,868.221Z" transform="translate(265.634 -646.235)" fill="#151414"/>
    <path id="パス_494" data-name="パス 494" d="M-258.8,891.461c3.381-.294,8.819-.735,15.433-1.286,3.6-.294,7.827-.553,10.473-.663l.037,5.623a44.6,44.6,0,0,0-6.907.44c-3.9.846-7.24,5.072-7.24,9.372,0,5.29,4.961,7.386,11.209,7.717l-2.059,6.063c-8.047-.625-14.919-4.961-14.919-12.642a14.685,14.685,0,0,1,4.557-10.509,125.182,125.182,0,0,0-13.743,2.021l-.55-5.953C-261.075,891.608-259.5,891.533-258.8,891.461Z" transform="translate(264.234 -638.792)" fill="#151414"/>
    <path id="パス_495" data-name="パス 495" d="M-253.911,916.939c2.168,0,5.475-.11,7.239-.257a10.356,10.356,0,0,0,2.868-.625l3.453,2.719a10.178,10.178,0,0,0-1.4,1.654c-.881,1.543-2.131,4.371-3.343,7.239a31.485,31.485,0,0,1,6.686,1.984c0-.148.038-.294.038-.4a22.992,22.992,0,0,0-.038-4.263l5.7.625a48.59,48.59,0,0,1-.661,6.5c1.433.808,2.646,1.617,3.6,2.241l-2.535,6.063c-.845-.772-1.764-1.543-2.719-2.315a18.341,18.341,0,0,1-8.891,9.187l-4.7-3.748c5.253-2.278,7.752-5.438,9-8.415a24.831,24.831,0,0,0-7.533-2.682,62.466,62.466,0,0,1-3.82,8.194,6.818,6.818,0,0,1-6.21,3.528c-3.417,0-6.028-2.315-6.028-6.32,0-5.7,5.183-10.105,12.494-10.546.882-2.021,1.727-4.079,2.427-5.513-1.434.038-3.858.11-5.477.22-.734.038-2.13.185-3.085.331l-.22-5.584C-256.079,916.864-254.718,916.939-253.911,916.939Zm-3.013,21.46c.626,0,1.066-.331,1.692-1.213a35.868,35.868,0,0,0,2.314-4.74c-3.344.66-5.217,2.682-5.217,4.52C-258.136,937.958-257.623,938.4-256.924,938.4Z" transform="translate(264.016 -630.501)" fill="#151414"/>
    <path id="パス_496" data-name="パス 496" d="M-243.589,942.8c-.185,1.176-.3,2.976-.369,4.557-.037.661-.037,1.36-.037,2.058,2.829-.073,6.945-.22,9.848-.514l.22,5.181c-2.976.257-7.129.4-10.032.476.073,1.8.22,4.337.369,6.763a28.32,28.32,0,0,1,10.986,6.21l-3.344,5.181a30.217,30.217,0,0,0-7.386-5.512v.625c0,3.344-1.322,6.651-8.084,6.651-5.255,0-9.774-1.764-9.774-7.055,0-4.079,3.454-7.2,10.252-7.2.626,0,1.249.037,1.874.074-.147-3.123-.293-6.614-.293-8.452,0-1.69-.038-2.94-.11-4.483a41.279,41.279,0,0,0-.405-4.557Zm-5.293,22.525a14.586,14.586,0,0,0-2.866-.257c-2.314,0-3.748.735-3.748,2.058,0,1.617,1.69,2.021,3.676,2.021,2.13,0,2.938-.882,2.938-3.234Z" transform="translate(264.646 -622.147)" fill="#151414"/>
    <path id="パス_497" data-name="パス 497" d="M-246.154,983.919a30.608,30.608,0,0,0-9.113,1.727c-.991.294-2.646.955-3.748,1.361l-1.616-6.175a40.687,40.687,0,0,0,4.3-.66,47.994,47.994,0,0,1,10.987-1.581c5.99,0,10.105,3.454,10.105,9.37,0,7.68-7.238,12.677-17.638,14.037L-256,996.523c9.041-.955,14.552-3.6,14.552-8.782C-241.451,985.719-242.957,983.919-246.154,983.919Zm7.79-12.494-.882,5.365c-4.3-.294-12.457-.992-16.646-1.727l.845-5.218A111.117,111.117,0,0,0-238.364,971.425Z" transform="translate(264.82 -613.699)" fill="#151414"/>
    <path id="パス_498" data-name="パス 498" d="M-258.568,996.557v7.5h19.915v5h-25.17V996.557Z" transform="translate(263.823 -605.355)" fill="#151414"/>
  </g>
</svg>
