<svg xmlns="http://www.w3.org/2000/svg" width="1126" height="906" viewBox="0 0 1126 906">
  <g id="グループ_341" data-name="グループ 341" transform="translate(-120 -4032)">
    <rect id="長方形_99" data-name="長方形 99" width="1126" height="906" transform="translate(120 4032)" fill="#f7f7f7"/>
    <text id="編" transform="translate(1098 4547)" fill="#fff" font-size="56" font-family="TA-F1blockline" letter-spacing="0.2em"><tspan x="0" y="0">編</tspan></text>
    <g id="グループ_282" data-name="グループ 282" transform="translate(0 -67)">
      <rect id="長方形_27" data-name="長方形 27" width="160" height="160" transform="translate(200 4149)" fill="#305698"/>
      <text id="遊ぶ人" transform="translate(229 4242)" fill="#fff" font-size="30" font-family="NotoSansJP-Black, Noto Sans JP" font-weight="800" letter-spacing="0.2em"><tspan x="0" y="0">遊</tspan><tspan y="0">ぶ</tspan><tspan y="0">人</tspan></text>
    </g>
    <g id="グループ_283" data-name="グループ 283" transform="translate(0 -67)">
      <rect id="長方形_28" data-name="長方形 28" width="160" height="160" transform="translate(1006 4149)" fill="#f0c228"/>
      <text id="編集者" transform="translate(1035 4242)" fill="#fff" font-size="30" font-family="NotoSansJP-Black, Noto Sans JP" font-weight="800" letter-spacing="0.2em"><tspan x="0" y="0">編集者</tspan></text>
    </g>
    <path id="パス_499" data-name="パス 499" d="M-21530-9745h646" transform="translate(21890.006 13907)" fill="none" stroke="#151414" stroke-width="2"/>
    <path id="パス_500" data-name="パス 500" d="M-21250-9743v156" transform="translate(21933 13904.999)" fill="none" stroke="#151414" stroke-width="2"/>
    <path id="パス_501" data-name="パス 501" d="M-21250-9743v80" transform="translate(21933.5 14469.001)" fill="none" stroke="#151414" stroke-width="2"/>
    <g id="グループ_284" data-name="グループ 284" transform="translate(0 -79)">
      <g id="グループ_154" data-name="グループ 154" transform="translate(200 4438)">
        <g id="長方形_34" data-name="長方形 34" fill="none" stroke="#305698" stroke-width="5">
          <rect width="483" height="367" stroke="none"/>
          <rect x="2.5" y="2.5" width="478" height="362" fill="none"/>
        </g>
        <g id="長方形_35" data-name="長方形 35" transform="translate(483)" fill="none" stroke="#f0c228" stroke-width="5">
          <rect width="483" height="367" stroke="none"/>
          <rect x="2.5" y="2.5" width="478" height="362" fill="none"/>
        </g>
      </g>
      <rect id="長方形_36" data-name="長方形 36" width="14" height="357" transform="translate(676 4443)" fill="#f7f7f7"/>
    </g>
    <text id="_希望したテイストの動画は残りません_ただし_イベントには参加できます_" data-name="→希望したテイストの動画は残りません。
　ただし、イベントには参加できます。" transform="translate(258 4506)" fill="#e30513" font-size="16" font-family="NotoSansJP-Medium, Noto Sans JP" font-weight="500"><tspan x="0" y="0">→希望</tspan><tspan y="0">したテイストの</tspan><tspan y="0">動画</tspan><tspan y="0">は</tspan><tspan y="0">残</tspan><tspan y="0">りません。</tspan><tspan x="0" y="24">　ただし、イベントには</tspan><tspan y="24">参加</tspan><tspan y="24">できます。</tspan></text>
    <text id="_どの編集者がいいかお選びいただけます_選んだ人に動画を作ってもらいます_" data-name="→どの編集者がいいかお選びいただけます。
　選んだ人に動画を作ってもらいます。" transform="translate(250 4641)" fill="#e30513" font-size="16" font-family="NotoSansJP-Medium, Noto Sans JP" font-weight="500"><tspan x="0" y="0">→どの</tspan><tspan y="0">編集者</tspan><tspan y="0">がいいかお</tspan><tspan y="0">選</tspan><tspan y="0">びいただけます。</tspan><tspan x="0" y="24">　</tspan><tspan y="24">選</tspan><tspan y="24">んだ</tspan><tspan y="24">人</tspan><tspan y="24">に</tspan><tspan y="24">動画</tspan><tspan y="24">を</tspan><tspan y="24">作</tspan><tspan y="24">ってもらいます。</tspan></text>
    <text id="_どの編集者がいいか遊ぶ人に選んでもらいま_す_選ばれなかった場合_残念ながらイベン_トには参加できません_" data-name="→どの編集者がいいか遊ぶ人に選んでもらいま
　す。選ばれなかった場合、残念ながらイベン
　トには参加できません。" transform="translate(740 4641)" fill="#e30513" font-size="16" font-family="NotoSansJP-Medium, Noto Sans JP" font-weight="500"><tspan x="0" y="0">→どの</tspan><tspan y="0">編集者</tspan><tspan y="0">がいいか</tspan><tspan y="0">遊</tspan><tspan y="0">ぶ</tspan><tspan y="0">人</tspan><tspan y="0">に</tspan><tspan y="0">選</tspan><tspan y="0">んでもらいま</tspan><tspan x="0" y="24">　す。</tspan><tspan y="24">選</tspan><tspan y="24">ばれなかった</tspan><tspan y="24">場合、残念</tspan><tspan y="24">ながらイベン</tspan><tspan x="0" y="48">　トには</tspan><tspan y="48">参加</tspan><tspan y="48">できません。</tspan></text>
    <text id="Q.希望したテイストが同じ相手がいない_" data-name="Q.希望したテイストが同じ相手がいない！" transform="translate(493 4463)" fill="#151414" font-size="20" font-family="NotoSansJP-Black, Noto Sans JP" font-weight="800"><tspan x="0" y="0">Q.</tspan><tspan y="0">希望</tspan><tspan y="0">したテイストが</tspan><tspan y="0">同</tspan><tspan y="0">じ</tspan><tspan y="0">相手</tspan><tspan y="0">がいない！</tspan></text>
    <text id="_残念ながら_イベントには参加できません_" data-name="→残念ながら、イベントには参加できません。" transform="translate(740 4506.189)" fill="#e30513" font-size="16" font-family="NotoSansJP-Medium, Noto Sans JP" font-weight="500"><tspan x="0" y="0">→残念</tspan><tspan y="0">ながら、イベントには</tspan><tspan y="0">参加</tspan><tspan y="0">できません。</tspan></text>
    <text id="Q.希望したテイストが同じ編集者が複数人いる_" data-name="Q.希望したテイストが同じ編集者が複数人いる！" transform="translate(462 4598)" fill="#151414" font-size="20" font-family="NotoSansJP-Black, Noto Sans JP" font-weight="800"><tspan x="0" y="0">Q.</tspan><tspan y="0">希望</tspan><tspan y="0">したテイストが</tspan><tspan y="0">同</tspan><tspan y="0">じ</tspan><tspan y="0">編集者</tspan><tspan y="0">が</tspan><tspan y="0">複数人</tspan><tspan y="0">いる！</tspan></text>
    <rect id="長方形_53" data-name="長方形 53" width="144" height="128" transform="translate(460 4098)" fill="#e30513"/>
    <text id="抽選" transform="translate(506 4134)" fill="#fff" font-size="24" font-family="NotoSansJP-Black, Noto Sans JP" font-weight="800" letter-spacing="0.2em"><tspan x="0" y="0">抽選</tspan></text>
    <text id="参加者が定員を超_えた場合のみ抽選_を行います_" data-name="参加者が定員を超
えた場合のみ抽選
を行います。" transform="translate(476 4162)" fill="#fff" font-size="14" font-family="NotoSansJP-Medium, Noto Sans JP" font-weight="500"><tspan x="0" y="0">参加者</tspan><tspan y="0">が</tspan><tspan y="0">定員</tspan><tspan y="0">を</tspan><tspan y="0">超</tspan><tspan x="0" y="22">えた</tspan><tspan y="22">場合</tspan><tspan y="22">のみ</tspan><tspan y="22">抽選</tspan><tspan x="0" y="44">を</tspan><tspan y="44">行</tspan><tspan y="44">います。</tspan></text>
    <rect id="長方形_54" data-name="長方形 54" width="400" height="90" transform="translate(483 4318)" fill="#e30513"/>
    <text id="マッチング" transform="translate(596 4376)" fill="#fff" font-size="30" font-family="NotoSansJP-Black, Noto Sans JP" font-weight="800" letter-spacing="0.2em"><tspan x="0" y="0">マッチング</tspan></text>
    <rect id="長方形_55" data-name="長方形 55" width="400" height="90" transform="translate(483 4806)" fill="#e30513"/>
    <text id="イベント参加" transform="translate(578 4864)" fill="#fff" font-size="30" font-family="NotoSansJP-Black, Noto Sans JP" font-weight="800" letter-spacing="0.2em"><tspan x="0" y="0">イベント</tspan><tspan y="0">参加</tspan></text>
  </g>
</svg>
