<svg xmlns="http://www.w3.org/2000/svg" width="919.633" height="571.375" viewBox="0 0 919.633 571.375">
  <g id="グループ_322" data-name="グループ 322" transform="translate(-1311.83 -1736.018)" opacity="0.98" style="isolation: isolate">
    <path id="合体_1" data-name="合体 1" d="M447.71,552.576c-50.854-.818-92.806-21.3-114.821-52.408-23.078,13.168-52.242,20.462-84.546,19.685-75.012-1.205-130.652-45.2-131.515-102.981C45.092,395.512-2.226,341.917.082,276.72c1.454-65.364,52.052-117.088,125.212-135.434,25.2-59.016,95.481-98.273,181.811-96.2a255.5,255.5,0,0,1,46.816,4.992C394.646,17.5,452.758-1.5,518.86.094,608.378,1.533,681.1,40.08,714.71,97.457c3.663-.1,7.329-.114,11.043-.039C824.7,99.4,903.1,163.582,900.876,240.764c-1.341,46.524-31.686,87.158-77.242,111.659a126.4,126.4,0,0,1,1.311,23.369c-1.935,88.329-93.113,152.946-211.812,150.114a291.9,291.9,0,0,1-60.847-7.245c-24,21.148-59.312,33.97-99.895,33.971C450.837,552.632,449.28,552.614,447.71,552.576Z" transform="translate(1321.319 1745.285)" fill="#fff"/>
    <g id="グループ_231" data-name="グループ 231" transform="translate(1311.831 1736.018)">
      <g id="グループ_218" data-name="グループ 218" transform="translate(0 116.427)">
        <g id="グループ_217" data-name="グループ 217">
          <path id="パス_448" data-name="パス 448" d="M1435.948,2128.5a171.143,171.143,0,0,1-57.871-20.619,169.42,169.42,0,0,1-47.458-40.864,166.755,166.755,0,0,1-29.266-56.25l-2.26-7.685-1.572-7.844-1.525-7.861-.877-7.949-.8-7.959-.136-7.963-.122-7.966.46-7.952a174.147,174.147,0,0,1,15.126-61.815,166.4,166.4,0,0,1,36.774-51.667,172.7,172.7,0,0,1,52.51-34.057,177.233,177.233,0,0,1,59.965-13.252c-39.452,9.65-75.633,29.076-101.7,57.891a166.737,166.737,0,0,0-30.855,48.373,170.21,170.21,0,0,0-12.659,55.729,178.166,178.166,0,0,0,5.17,57.061,167.039,167.039,0,0,0,23.848,52.2,176.428,176.428,0,0,0,40.519,41.992C1398.994,2112,1416.959,2121.21,1435.948,2128.5Z" transform="translate(-1294.059 -1786.795)" fill="#212121"/>
        </g>
      </g>
      <g id="グループ_220" data-name="グループ 220" transform="translate(125.342 398.823)">
        <g id="グループ_219" data-name="グループ 219">
          <path id="パス_449" data-name="パス 449" d="M1562.4,1974.891c-16.169,20.517-40.9,34.528-67.223,40.325a136.894,136.894,0,0,1-20.052,3,142.088,142.088,0,0,1-20.242.238c-6.781.034-13.513-1.342-20.28-2.142-6.638-1.612-13.388-2.856-19.822-5.292-6.567-2.013-12.744-5.086-18.989-7.938-5.926-3.5-12.008-6.736-17.4-11.054-10.979-8.233-20.906-18.063-28.337-29.577a116.022,116.022,0,0,1-16.265-37,113.537,113.537,0,0,1-1.769-39.35c2.48,12.809,5.72,25.017,10.721,36.385a132.648,132.648,0,0,0,19.4,30.906,121.72,121.72,0,0,0,26.772,23.759c4.842,3.487,10.219,6.143,15.441,9,5.489,2.358,10.843,5.008,16.61,6.688,5.563,2.24,11.51,3.3,17.3,4.886,5.95.912,11.826,2.287,17.921,2.6a165.978,165.978,0,0,0,36.479.047A153.474,153.474,0,0,0,1562.4,1974.891Z" transform="translate(-1331.05 -1886.104)" fill="#212121"/>
        </g>
      </g>
      <g id="グループ_222" data-name="グループ 222" transform="translate(342.398 499.052)">
        <g id="グループ_221" data-name="グループ 221">
          <path id="パス_450" data-name="パス 450" d="M1614.417,1937.889c-11.643,18.009-29.943,32.02-50.477,40.352-20.612,8.386-43.446,11.057-65.444,9.21a133.239,133.239,0,0,1-62.719-21.513c-18.474-12.344-33.434-30.035-40.667-50.253a154.3,154.3,0,0,0,48.268,37.2,160.651,160.651,0,0,0,56.759,15.434c19.843,1.64,39.712.593,59.046-4.357A164.321,164.321,0,0,0,1614.417,1937.889Z" transform="translate(-1395.109 -1915.685)" fill="#212121"/>
        </g>
      </g>
      <g id="グループ_224" data-name="グループ 224" transform="translate(517.084 332.752)">
        <g id="グループ_223" data-name="グループ 223">
          <path id="パス_451" data-name="パス 451" d="M1763.722,1866.606c.63,4.52,1.115,9.084,1.674,13.679a65.516,65.516,0,0,1,.515,6.906l.271,6.939a181.3,181.3,0,0,1-2.155,27.873,177.471,177.471,0,0,1-7.007,27.345,162.9,162.9,0,0,1-11.636,25.952c-18.494,33.417-48.685,60.009-83.212,76.076a216.189,216.189,0,0,1-54.262,17.034,241.89,241.89,0,0,1-56.329,2.847c-37.307-2.237-74.572-13.164-104.918-33.986a268.212,268.212,0,0,0,105.3,18.883,275.184,275.184,0,0,0,52.5-5.639,227.685,227.685,0,0,0,49.545-16.525c31.468-14.688,59.219-37.35,78.5-66.5a178.837,178.837,0,0,0,22.37-47.6,204.621,204.621,0,0,0,6.015-26.148C1762.337,1884.812,1762.8,1875.782,1763.722,1866.606Z" transform="translate(-1446.663 -1866.606)" fill="#212121"/>
        </g>
      </g>
      <g id="グループ_226" data-name="グループ 226" transform="translate(722.205 86.29)">
        <g id="グループ_225" data-name="グループ 225">
          <path id="パス_452" data-name="パス 452" d="M1507.2,1774.382c39.8-5.354,82.423,2.24,118.445,23.674a166.414,166.414,0,0,1,46.445,42.125,163.33,163.33,0,0,1,27.31,56.9l1.776,7.746a56.6,56.6,0,0,1,1.457,7.793c.613,5.249,1.338,10.5,1.827,15.75l.169,15.773c-.023,5.249-.562,10.48-.911,15.705a168.4,168.4,0,0,1-18.457,59.975,155.749,155.749,0,0,1-93.5,75.771c17.681-9.579,33.887-21.15,47.526-35.07a167.455,167.455,0,0,0,32.44-47.411,169.617,169.617,0,0,0,13.848-54.943c.078-4.761.542-9.511.424-14.258l-.464-14.228c-.519-4.693-1.2-9.358-1.762-14.038a46.292,46.292,0,0,0-1.355-6.926l-1.617-6.872a157.668,157.668,0,0,0-23.417-50.989,166.97,166.97,0,0,0-39.97-40.2C1585.942,1788.606,1547.271,1777.065,1507.2,1774.382Z" transform="translate(-1507.199 -1772.729)" fill="#212121"/>
        </g>
      </g>
      <g id="グループ_228" data-name="グループ 228" transform="translate(348.47)">
        <g id="グループ_227" data-name="グループ 227">
          <path id="パス_453" data-name="パス 453" d="M1396.9,1821.3c11.171-16.5,25.555-30.963,41.7-43.236a212.792,212.792,0,0,1,53.825-28.588,226.953,226.953,0,0,1,59.988-12.69c5.113-.335,10.247-.783,15.346-.711,5.109-.061,10.223-.139,15.336.189,5.109.285,10.229.387,15.332.909l15.3,1.907a240.114,240.114,0,0,1,59.033,17.6,201.017,201.017,0,0,1,51.778,33.244,195,195,0,0,1,38.9,47.048,176.585,176.585,0,0,1,21.212,56.2c-15.092-36.863-39.194-68.52-69.683-91.562-3.91-2.745-7.617-5.75-11.656-8.281l-12.131-7.532-12.645-6.607c-4.243-2.139-8.7-3.843-13.025-5.788a253.093,253.093,0,0,0-54.791-15.353c-37.689-5.422-76.845-4.795-113.718,5.767a234.311,234.311,0,0,0-53.255,22.089A241.467,241.467,0,0,0,1396.9,1821.3Z" transform="translate(-1396.901 -1736.018)" fill="#212121"/>
        </g>
      </g>
      <g id="グループ_230" data-name="グループ 230" transform="translate(134.669 56.364)">
        <g id="グループ_229" data-name="グループ 229">
          <path id="パス_454" data-name="パス 454" d="M1333.8,1875.207c4.09-23.048,15.011-45.147,30.323-63.773a166.191,166.191,0,0,1,57.644-43.273,178.579,178.579,0,0,1,70.123-15.411c2.985-.037,5.967-.19,8.942-.017l8.895.592a157.2,157.2,0,0,1,17.613,2.071c11.639,2.135,23.088,5.123,33.827,9.856-11.7-.569-23.126-.982-34.484-.447-5.645.193-11.334.566-16.942,1.145l-8.393.711c-2.789.23-5.537.82-8.3,1.149a234.625,234.625,0,0,0-63.387,17.857,208.337,208.337,0,0,0-54.581,36.09C1359.016,1836.924,1345.408,1854.886,1333.8,1875.207Z" transform="translate(-1333.803 -1752.652)" fill="#212121"/>
        </g>
      </g>
    </g>
    <g id="グループ_233" data-name="グループ 233" transform="translate(1343.929 2151.861)">
      <g id="グループ_232" data-name="グループ 232">
        <path id="パス_455" data-name="パス 455" d="M1400.142,1958.087c-.389,21.416-19.291,37.074-43.913,36.368-24.63-.478-42.757-17.026-42.115-38.437.387-21.416,19.291-37.067,43.913-36.37C1382.654,1920.128,1400.784,1936.676,1400.142,1958.087Z" transform="translate(-1310.238 -1912.324)" fill="#fff"/>
        <path id="パス_456" data-name="パス 456" d="M1403.076,1962.369a50.034,50.034,0,0,1-2.986,16.077,41.363,41.363,0,0,1-9.079,14.7,37.2,37.2,0,0,1-15.12,9.406,43.04,43.04,0,0,1-17.546,1.849,49.455,49.455,0,0,1-16.7-4.846,59.282,59.282,0,0,1-14-9.6,47.936,47.936,0,0,1-10.267-13.247,42.648,42.648,0,0,1-4.743-16.512,36.831,36.831,0,0,1,2.707-17.719,38.854,38.854,0,0,1,11.135-14.649,49.987,49.987,0,0,1,33.978-11.187,52.408,52.408,0,0,1,17.58,3.752,39.3,39.3,0,0,1,14.587,10.514,42.105,42.105,0,0,1,8.346,15.214A48.385,48.385,0,0,1,1403.076,1962.369Zm-1.363-.034a25.886,25.886,0,0,0-4.087-14.693,30.2,30.2,0,0,0-10.858-9.829,53.285,53.285,0,0,0-13.012-4.933,55.373,55.373,0,0,0-13.649-1.692,57.867,57.867,0,0,0-13.572,1.534,38.184,38.184,0,0,0-12.217,5.322,34.48,34.48,0,0,0-9.252,9.44,31.594,31.594,0,0,0-4.971,12.889,27.449,27.449,0,0,0,1.457,14.43,27.812,27.812,0,0,0,8.936,11.793,31.664,31.664,0,0,0,13.6,5.844,58.586,58.586,0,0,0,14.534.6,83.333,83.333,0,0,0,13.909-2.089,60.26,60.26,0,0,0,13.189-4.7,30.782,30.782,0,0,0,11.305-9.39A25.446,25.446,0,0,0,1401.713,1962.335Z" transform="translate(-1312.492 -1916.588)" fill="#212121"/>
      </g>
    </g>
    <g id="グループ_235" data-name="グループ 235" transform="translate(1311.833 2202.374)">
      <g id="グループ_234" data-name="グループ 234">
        <path id="パス_457" data-name="パス 457" d="M1333.349,1963.16c-.222,11.96-10.134,20.717-23.03,20.345-12.9-.251-22.377-9.469-22.024-21.428.22-11.958,10.136-20.712,23.028-20.343C1324.223,1941.982,1333.7,1951.2,1333.349,1963.16Z" transform="translate(-1284.883 -1935.517)" fill="#fff"/>
        <path id="パス_458" data-name="パス 458" d="M1335.661,1966.339a42.156,42.156,0,0,1-1.149,8.918,24.171,24.171,0,0,1-4.138,8.944,18.826,18.826,0,0,1-8.291,6.17,20.891,20.891,0,0,1-10.146,1.122,24.713,24.713,0,0,1-9.4-3.42,36.344,36.344,0,0,1-7.42-6.084,30.185,30.185,0,0,1-8.255-16.824,21.791,21.791,0,0,1,.859-10.2,22.156,22.156,0,0,1,5.868-8.95,26.535,26.535,0,0,1,19.617-7.29,26.965,26.965,0,0,1,10.215,2.513,20.289,20.289,0,0,1,7.924,6.9,24.8,24.8,0,0,1,3.685,9.209A38.922,38.922,0,0,1,1335.661,1966.339Zm-1.155-.027a13.03,13.03,0,0,0-2.361-7.788,14.839,14.839,0,0,0-6.047-4.776,31.7,31.7,0,0,0-6.612-2.02,28.083,28.083,0,0,0-6.576-.657c-4.464.085-8.7.887-12.254,3.281a18.992,18.992,0,0,0-7.463,10.966,14.308,14.308,0,0,0,.131,7.577,13.2,13.2,0,0,0,4.339,6.367,13.774,13.774,0,0,0,7.115,2.834,30.073,30.073,0,0,0,7.392-.251,67.211,67.211,0,0,0,6.778-1.236,42.714,42.714,0,0,0,6.655-2.038,15.323,15.323,0,0,0,6.258-4.556A12.727,12.727,0,0,0,1334.506,1966.312Z" transform="translate(-1286.618 -1938.68)" fill="#212121"/>
      </g>
    </g>
  </g>
</svg>
