<svg xmlns="http://www.w3.org/2000/svg" width="41" height="41" viewBox="0 0 41 41">
  <g id="グループ_338" data-name="グループ 338" transform="translate(-662.5 -7395.5)">
    <path id="パス_553" data-name="パス 553" d="M42.288,35.681a7.034,7.034,0,0,1-2.025.555,3.535,3.535,0,0,0,1.551-1.95,7.058,7.058,0,0,1-2.239.855,3.529,3.529,0,0,0-6.008,3.216A10.008,10.008,0,0,1,26.3,34.673,3.53,3.53,0,0,0,27.39,39.38a3.5,3.5,0,0,1-1.6-.441c0,.015,0,.03,0,.045a3.528,3.528,0,0,0,2.828,3.457,3.539,3.539,0,0,1-1.592.061,3.529,3.529,0,0,0,3.293,2.448,7.117,7.117,0,0,1-5.22,1.46,10.026,10.026,0,0,0,15.435-8.447c0-.153,0-.305-.01-.456a7.15,7.15,0,0,0,1.76-1.825Z" transform="translate(648.396 7375.605)" fill="#fff"/>
    <g id="コンポーネント_13_8" data-name="コンポーネント 13 – 8" transform="translate(663 7396)">
      <circle id="楕円形_20" data-name="楕円形 20" cx="20" cy="20" r="20" fill="none" stroke="#fff" stroke-width="1"/>
    </g>
  </g>
</svg>
